<?xml version="1.0" encoding="iso-8859-1"?>
<!-- Uploaded to: SVG Repo, www.svgrepo.com, Generator: SVG Repo Mixer Tools -->
<svg height="800px" width="800px" version="1.1" id="Capa_1" xmlns="http://www.w3.org/2000/svg" xmlns:xlink="http://www.w3.org/1999/xlink" 
	 viewBox="0 0 420.477 420.477" xml:space="preserve">
<g>
	<g>
		<path style="fill:#010002;" d="M350.462,418.058H70.019c-6.587,0-11.934-5.346-11.934-11.934V224.588H11.937
			c-4.827,0-9.177-2.906-11.027-7.369c-1.85-4.457-0.829-9.589,2.59-13.002L201.803,5.914c4.654-4.66,12.214-4.66,16.874,0
			L416.98,204.211c3.413,3.413,4.433,8.545,2.59,13.002c-1.85,4.463-6.2,7.369-11.027,7.369h-46.148v181.542
			C362.395,412.717,357.049,418.058,350.462,418.058z M81.953,394.19h256.575V212.654c0-6.587,5.346-11.934,11.934-11.934h29.273
			L210.24,31.225L40.745,200.72h29.273c6.587,0,11.934,5.346,11.934,11.934V394.19z"/>
	</g>
</g>
</svg>