<?xml version="1.0" encoding="UTF-8"?>
<!DOCTYPE svg PUBLIC "-//W3C//DTD SVG 1.1//EN" "http://www.w3.org/Graphics/SVG/1.1/DTD/svg11.dtd">
<svg xmlns="http://www.w3.org/2000/svg" viewBox="0 0 100 100" version="1.1" width="100px" height="100px" style="shape-rendering:geometricPrecision; text-rendering:geometricPrecision; image-rendering:optimizeQuality; fill-rule:evenodd; clip-rule:evenodd" xmlns:xlink="http://www.w3.org/1999/xlink">
<g><path style="opacity:1"  d="M 23.5,9.5 C 40.8333,9.5 58.1667,9.5 75.5,9.5C 75.5,10.8333 75.5,12.1667 75.5,13.5C 58.1667,13.5 40.8333,13.5 23.5,13.5C 23.5,12.1667 23.5,10.8333 23.5,9.5 Z"/></g>
<g><path style="opacity:1"  d="M 13.5,17.5 C 37.5,17.5 61.5,17.5 85.5,17.5C 85.5,18.8333 85.5,20.1667 85.5,21.5C 61.5,21.5 37.5,21.5 13.5,21.5C 13.5,20.1667 13.5,18.8333 13.5,17.5 Z"/></g>
<g><path style="opacity:1"  d="M 3.5,25.5 C 34.1667,25.5 64.8333,25.5 95.5,25.5C 95.5,46.8333 95.5,68.1667 95.5,89.5C 64.8333,89.5 34.1667,89.5 3.5,89.5C 3.5,68.1667 3.5,46.8333 3.5,25.5 Z M 7.5,29.5 C 35.5,29.5 63.5,29.5 91.5,29.5C 91.5,48.1667 91.5,66.8333 91.5,85.5C 63.5,85.5 35.5,85.5 7.5,85.5C 7.5,66.8333 7.5,48.1667 7.5,29.5 Z"/></g>
<g><path style="opacity:1"  d="M 47.5,39.5 C 52.6079,39.4301 57.6079,40.0967 62.5,41.5C 63.487,44.7683 63.8204,48.1016 63.5,51.5C 59.543,51.1774 55.7097,51.1774 52,51.5C 51.6667,58.5 51.3333,65.5 51,72.5C 50.1667,73.3333 49.3333,74.1667 48.5,75C 44.8333,75.6667 41.1667,75.6667 37.5,75C 34.8333,71.3333 34.8333,67.6667 37.5,64C 40.5131,63.4978 43.5131,62.9978 46.5,62.5C 47.3978,54.8756 47.7311,47.2089 47.5,39.5 Z"/></g>
</svg>
