<?xml version="1.0" encoding="iso-8859-1"?>
<!-- Uploaded to: SVG Repo, www.svgrepo.com, Generator: SVG Repo Mixer Tools -->
<svg height="800px" width="800px" version="1.1" id="Capa_1" xmlns="http://www.w3.org/2000/svg" xmlns:xlink="http://www.w3.org/1999/xlink" 
	 viewBox="0 0 413.883 413.883" xml:space="preserve">
<g>
	<g>
		<path style="fill:#010002;" d="M405.754,52.498H8.129C3.642,52.498,0,56.14,0,60.627v81.286c0,4.487,3.642,8.129,8.129,8.129
			h397.625c4.495,0,8.129-3.642,8.129-8.129V60.627C413.883,56.14,410.249,52.498,405.754,52.498z M397.625,133.784H16.257V68.756
			h381.368V133.784z"/>
		<path style="fill:#010002;" d="M405.754,158.17H8.129c-4.487,0-8.129,3.642-8.129,8.129v81.286c0,4.495,3.642,8.129,8.129,8.129
			h397.625c4.495,0,8.129-3.633,8.129-8.129v-81.286C413.883,161.811,410.249,158.17,405.754,158.17z M397.625,239.456H16.257
			v-65.029h381.368V239.456z"/>
		<path style="fill:#010002;" d="M405.754,263.841H8.129c-4.487,0-8.129,3.633-8.129,8.129v81.286c0,4.495,3.642,8.129,8.129,8.129
			h397.625c4.495,0,8.129-3.633,8.129-8.129V271.97C413.883,267.475,410.249,263.841,405.754,263.841z M397.625,345.127H16.257
			v-65.029h381.368V345.127z"/>
	</g>
</g>
</svg>