<?xml version="1.0" encoding="iso-8859-1"?>
<!-- Uploaded to: SVG Repo, www.svgrepo.com, Generator: SVG Repo Mixer Tools -->
<svg height="800px" width="800px" version="1.1" id="Capa_1" xmlns="http://www.w3.org/2000/svg" xmlns:xlink="http://www.w3.org/1999/xlink" 
	 viewBox="0 0 416.886 416.886" xml:space="preserve">
<g>
	<g>
		<path style="fill:#010002;" d="M397.977,83.442L333.167,2.384c-3.178-3.178-8.307-3.178-11.494,0
			c-3.178,3.178-3.178,8.324,0,11.502l51.771,68.028H77.654c-0.008,0-0.008,0-0.016,0H24.802c-4.487,0-8.129,3.642-8.129,8.129
			v90.04c0,4.487,3.642,8.129,8.129,8.129s8.129-3.642,8.129-8.129v-81.92h37.448l0,0h301.375l-51.771,68.036
			c-3.178,3.178-3.178,8.307,0,11.494c1.585,1.585,3.666,2.382,5.747,2.382c2.081,0,4.17-0.797,5.747-2.382l66.508-82.757
			C401.155,91.757,401.155,86.62,397.977,83.442z"/>
		<path style="fill:#010002;" d="M18.909,333.436l64.809,81.066c3.178,3.178,8.307,3.178,11.494,0c3.178-3.186,3.178-8.324,0-11.51
			l-51.771-68.028h295.799c0.008,0,0.008,0.008,0.016,0.008h52.836c4.495,0,8.129-3.642,8.129-8.129v-90.048
			c0-4.495-3.633-8.129-8.129-8.129c-4.487,0-8.129,3.633-8.129,8.129v81.912h-37.448v-0.008H45.139l51.771-68.028
			c3.178-3.178,3.178-8.316,0-11.494c-1.585-1.585-3.666-2.382-5.747-2.382s-4.17,0.797-5.747,2.382l-66.508,82.757
			C15.73,325.112,15.73,330.258,18.909,333.436z"/>
	</g>
</g>
</svg>