<?xml version="1.0" encoding="UTF-8"?>
<!DOCTYPE svg PUBLIC "-//W3C//DTD SVG 1.1//EN" "http://www.w3.org/Graphics/SVG/1.1/DTD/svg11.dtd">
<svg xmlns="http://www.w3.org/2000/svg" version="1.1" width="893px" height="883px" style="shape-rendering:geometricPrecision; text-rendering:geometricPrecision; image-rendering:optimizeQuality; fill-rule:evenodd; clip-rule:evenodd" xmlns:xlink="http://www.w3.org/1999/xlink">
<g><path style="opacity:0.997" fill="#609a8a" d="M 412.5,3.5 C 552.116,-2.819 670.616,43.5143 768,142.5C 859.874,243.805 897.874,362.805 882,499.5C 864.062,617.301 808.562,712.801 715.5,786C 603.836,868.005 479.836,895.005 343.5,867C 207.139,833.281 106.973,754.114 43,629.5C -0.0728875,537.511 -10.7396,441.844 11,342.5C 40.8949,223.452 107.728,131.619 211.5,67C 273.556,30.0363 340.556,8.86968 412.5,3.5 Z"/></g>
<g><path style="opacity:1" fill="#b54f49" d="M 424.5,215.5 C 423.448,215.351 422.448,215.517 421.5,216C 384.055,254.398 361.555,300.565 354,354.5C 353.5,384.165 353.333,413.831 353.5,443.5C 345.833,443.5 338.167,443.5 330.5,443.5C 330.667,397.165 330.5,350.832 330,304.5C 327.797,282.906 321.797,262.573 312,243.5C 311.667,241.5 311.333,239.5 311,237.5C 305.082,226.659 298.415,216.325 291,206.5C 288.333,203.833 285.667,201.167 283,198.5C 282.333,196.833 282.333,195.167 283,193.5C 337.096,192.336 391.263,192.169 445.5,193C 447.56,194.493 447.893,196.326 446.5,198.5C 437.979,202.694 430.646,208.361 424.5,215.5 Z"/></g>
<g><path style="opacity:1" fill="#020103" d="M 424.5,215.5 C 424.013,216.473 423.513,217.473 423,218.5C 422.333,324.833 422.333,431.167 423,537.5C 429.098,551.492 431.932,566.159 431.5,581.5C 431.45,605.467 427.617,628.8 420,651.5C 408.645,676.178 391.645,695.845 369,710.5C 368.167,710.333 367.333,710.167 366.5,710C 372.77,696.111 374.103,681.778 370.5,667C 353.837,666.5 337.17,666.333 320.5,666.5C 320.5,676.5 320.5,686.5 320.5,696.5C 318.833,696.5 317.167,696.5 315.5,696.5C 315.5,686.5 315.5,676.5 315.5,666.5C 297.164,666.333 278.83,666.5 260.5,667C 259.676,680.758 259.176,694.592 259,708.5C 255.376,712.574 251.21,716.074 246.5,719C 243,723.167 239.5,727.333 236,731.5C 236.805,710.981 236.639,690.481 235.5,670C 211.274,667.937 192.441,676.77 179,696.5C 181.973,671.044 193.806,650.878 214.5,636C 221.694,632.495 229.194,629.995 237,628.5C 237.752,616.141 237.585,603.807 236.5,591.5C 230.33,593.429 224.33,595.595 218.5,598C 227.933,584.899 239.099,573.399 252,563.5C 254.5,559.833 257,556.167 259.5,552.5C 259.648,580.138 259.648,607.805 259.5,635.5C 278.167,635.5 296.833,635.5 315.5,635.5C 315.5,627.5 315.5,619.5 315.5,611.5C 317.167,611.5 318.833,611.5 320.5,611.5C 320.5,619.5 320.5,627.5 320.5,635.5C 359.876,643.752 388.209,630.086 405.5,594.5C 407.265,587.709 410.099,581.376 414,575.5C 414.667,460.833 414.667,346.167 414,231.5C 412.005,234.796 410.005,238.13 408,241.5C 407.667,311.5 407.333,381.5 407,451.5C 401.833,456.667 396.667,461.833 391.5,467C 380.172,467.5 368.838,467.667 357.5,467.5C 308.5,467.5 259.5,467.5 210.5,467.5C 210.333,446.831 210.5,426.164 211,405.5C 217.027,409.348 222.693,413.682 228,418.5C 232.269,424.035 235.769,430.035 238.5,436.5C 239.103,438.679 239.77,440.846 240.5,443C 270.498,443.5 300.498,443.667 330.5,443.5C 338.167,443.5 345.833,443.5 353.5,443.5C 353.333,413.831 353.5,384.165 354,354.5C 361.555,300.565 384.055,254.398 421.5,216C 422.448,215.517 423.448,215.351 424.5,215.5 Z"/></g>
<g><path style="opacity:1" fill="#020103" d="M 663.5,226.5 C 656.332,232.515 649.832,239.515 644,247.5C 643.211,249.712 643.378,251.712 644.5,253.5C 638.086,261.344 635.419,270.344 636.5,280.5C 636.5,281.167 636.167,281.5 635.5,281.5C 628.699,282.324 622.365,284.324 616.5,287.5C 611.968,288.763 607.635,290.597 603.5,293C 566.306,317.26 547.472,351.76 547,396.5C 546.179,403.679 546.345,410.679 547.5,417.5C 546.672,459.762 546.172,502.096 546,544.5C 543.329,599.668 521.496,645.501 480.5,682C 478.309,683.919 475.976,685.253 473.5,686C 482.461,674.575 488.628,661.742 492,647.5C 500.161,613.627 500.161,580.293 492,547.5C 472.24,491.401 467.906,434.401 479,376.5C 489.494,332.353 511.328,294.853 544.5,264C 579.097,235.27 618.763,222.77 663.5,226.5 Z"/></g>
<g><path style="opacity:1" fill="#b54f49" d="M 663.5,226.5 C 676.167,226.5 688.833,226.5 701.5,226.5C 701.628,228.655 701.128,230.655 700,232.5C 688.47,243.696 677.303,255.196 666.5,267C 663.854,267.497 661.187,267.664 658.5,267.5C 658.5,262.833 658.5,258.167 658.5,253.5C 653.833,253.5 649.167,253.5 644.5,253.5C 643.378,251.712 643.211,249.712 644,247.5C 649.832,239.515 656.332,232.515 663.5,226.5 Z"/></g>
<g><path style="opacity:1" fill="#b54f49" d="M 405.5,594.5 C 400.791,597.521 395.791,600.021 390.5,602C 381.989,603.065 373.656,602.398 365.5,600C 354.93,592.083 351.43,581.583 355,568.5C 358.414,558.758 365.248,552.925 375.5,551C 377.584,550.303 379.251,549.136 380.5,547.5C 383.85,547.665 387.183,547.498 390.5,547C 404.244,537.778 408.744,524.944 404,508.5C 399.833,500.167 395.667,491.833 391.5,483.5C 380.186,482.501 368.853,482.168 357.5,482.5C 357.5,477.5 357.5,472.5 357.5,467.5C 368.838,467.667 380.172,467.5 391.5,467C 396.667,461.833 401.833,456.667 407,451.5C 407.333,381.5 407.667,311.5 408,241.5C 410.005,238.13 412.005,234.796 414,231.5C 414.667,346.167 414.667,460.833 414,575.5C 410.099,581.376 407.265,587.709 405.5,594.5 Z"/></g>
<g><path style="opacity:1" fill="#b5504a" d="M 636.5,280.5 C 647.167,280.5 657.833,280.5 668.5,280.5C 668.509,282.308 668.009,283.975 667,285.5C 626.931,329.396 587.098,373.396 547.5,417.5C 546.345,410.679 546.179,403.679 547,396.5C 547.472,351.76 566.306,317.26 603.5,293C 607.635,290.597 611.968,288.763 616.5,287.5C 623.051,285.87 629.384,283.87 635.5,281.5C 636.167,281.5 636.5,281.167 636.5,280.5 Z"/></g>
<g><path style="opacity:1" fill="#5f3331" d="M 635.5,281.5 C 629.384,283.87 623.051,285.87 616.5,287.5C 622.365,284.324 628.699,282.324 635.5,281.5 Z"/></g>
<g><path style="opacity:1" fill="#020204" d="M 290.5,356.5 C 305.208,355.044 314.708,361.378 319,375.5C 320.127,381.755 319.46,387.755 317,393.5C 313.466,397.369 309.633,400.869 305.5,404C 289.243,408.454 278.076,402.954 272,387.5C 269.481,371.857 275.648,361.523 290.5,356.5 Z"/></g>
<g><path style="opacity:1" fill="#b5504a" d="M 238.5,436.5 C 235.769,430.035 232.269,424.035 228,418.5C 222.693,413.682 217.027,409.348 211,405.5C 210.5,426.164 210.333,446.831 210.5,467.5C 210.667,489.503 210.5,511.503 210,533.5C 206.634,538.609 202.134,539.776 196.5,537C 195.789,535.745 194.956,534.579 194,533.5C 193.5,475.501 193.333,417.501 193.5,359.5C 213.411,360.553 227.577,370.219 236,388.5C 241.202,403.751 242.869,419.418 241,435.5C 240.329,436.252 239.496,436.586 238.5,436.5 Z"/></g>
<g><path style="opacity:1" fill="#020103" d="M 357.5,482.5 C 368.853,482.168 380.186,482.501 391.5,483.5C 395.667,491.833 399.833,500.167 404,508.5C 408.744,524.944 404.244,537.778 390.5,547C 387.183,547.498 383.85,547.665 380.5,547.5C 365.5,547.5 350.5,547.5 335.5,547.5C 331.226,544.066 326.226,542.732 320.5,543.5C 315.449,543.03 310.783,544.03 306.5,546.5C 277.833,546.5 249.167,546.5 220.5,546.5C 220.5,538.5 220.5,530.5 220.5,522.5C 236.17,522.667 251.837,522.5 267.5,522C 268.637,516.918 268.804,511.751 268,506.5C 267.5,506 267,505.5 266.5,505C 251.17,504.5 235.837,504.333 220.5,504.5C 220.5,497.167 220.5,489.833 220.5,482.5C 266.167,482.5 311.833,482.5 357.5,482.5 Z"/></g>
<g><path style="opacity:1" fill="#5f9a8a" d="M 303.5,505.5 C 315.838,505.333 328.171,505.5 340.5,506C 341.629,510.079 341.796,514.245 341,518.5C 328.576,519.655 316.076,519.821 303.5,519C 302.194,514.501 302.194,510.001 303.5,505.5 Z"/></g>
<g><path style="opacity:1" fill="#b54f49" d="M 335.5,547.5 C 339.874,558.243 337.208,566.743 327.5,573C 311.692,576.496 303.526,570.329 303,554.5C 303.696,551.562 304.862,548.896 306.5,546.5C 310.783,544.03 315.449,543.03 320.5,543.5C 326.226,542.732 331.226,544.066 335.5,547.5 Z"/></g>
<g><path style="opacity:1" fill="#020304" d="M 285.5,575.5 C 297.179,574.361 304.679,579.361 308,590.5C 307.81,606.024 299.976,613.19 284.5,612C 271.737,606.053 268.237,596.553 274,583.5C 277.498,580.183 281.331,577.516 285.5,575.5 Z"/></g>
</svg>
