<?xml version="1.0" encoding="UTF-8"?>
<!DOCTYPE svg PUBLIC "-//W3C//DTD SVG 1.1//EN" "http://www.w3.org/Graphics/SVG/1.1/DTD/svg11.dtd">
<svg xmlns="http://www.w3.org/2000/svg" version="1.1" width="893px" height="883px" style="shape-rendering:geometricPrecision; text-rendering:geometricPrecision; image-rendering:optimizeQuality; fill-rule:evenodd; clip-rule:evenodd" xmlns:xlink="http://www.w3.org/1999/xlink">
<g><path style="opacity:0.998" fill="#b4504a" d="M 424.5,215.5 C 423.448,215.351 422.448,215.517 421.5,216C 384.055,254.398 361.555,300.565 354,354.5C 353.5,384.165 353.333,413.831 353.5,443.5C 345.427,444.132 337.76,443.465 330.5,441.5C 329.333,397.561 329.333,353.561 330.5,309.5C 329.089,297.37 326.923,285.37 324,273.5C 321.085,266.341 318.752,259.008 317,251.5C 313.156,246.173 310.322,240.506 308.5,234.5C 306.808,232.795 305.475,230.795 304.5,228.5C 304.416,225.318 303.083,222.985 300.5,221.5C 295.801,213.444 290.135,206.111 283.5,199.5C 282.167,197.167 282.167,194.833 283.5,192.5C 337.841,192.551 392.174,192.385 446.5,192C 448.673,193.865 449.007,196.031 447.5,198.5C 444.172,201.167 440.506,203.333 436.5,205C 432.656,208.743 428.656,212.243 424.5,215.5 Z"/></g>
<g><path style="opacity:0.122" fill="#74897b" d="M 283.5,192.5 C 282.167,194.833 282.167,197.167 283.5,199.5C 282.275,198.848 281.608,197.681 281.5,196C 281.608,194.319 282.275,193.152 283.5,192.5 Z"/></g>
<g><path style="opacity:0.998" fill="#020103" d="M 424.5,215.5 C 423.847,216.807 423.18,218.14 422.5,219.5C 423.161,324.506 423.161,429.673 422.5,535C 428.765,549.825 431.765,565.325 431.5,581.5C 431.45,605.467 427.617,628.8 420,651.5C 412.572,668.528 402.072,683.361 388.5,696C 382.142,701.031 375.809,706.031 369.5,711C 368.365,711.749 367.365,711.583 366.5,710.5C 372.595,696.374 373.929,681.874 370.5,667C 353.837,666.5 337.17,666.333 320.5,666.5C 320.5,676.5 320.5,686.5 320.5,696.5C 318.833,696.5 317.167,696.5 315.5,696.5C 315.5,686.5 315.5,676.5 315.5,666.5C 297.164,666.333 278.83,666.5 260.5,667C 259.676,680.758 259.176,694.592 259,708.5C 255.376,712.574 251.21,716.074 246.5,719C 243,723.167 239.5,727.333 236,731.5C 236.805,710.981 236.639,690.481 235.5,670C 211.274,667.937 192.441,676.77 179,696.5C 181.973,671.044 193.806,650.878 214.5,636C 221.694,632.495 229.194,629.995 237,628.5C 237.752,616.141 237.585,603.807 236.5,591.5C 230.33,593.429 224.33,595.595 218.5,598C 227.933,584.899 239.099,573.399 252,563.5C 254.5,559.833 257,556.167 259.5,552.5C 259.648,580.138 259.648,607.805 259.5,635.5C 278.167,635.5 296.833,635.5 315.5,635.5C 315.441,627.452 315.441,619.452 315.5,611.5C 317.167,611.5 318.833,611.5 320.5,611.5C 320.5,619.5 320.5,627.5 320.5,635.5C 355.09,643.429 381.924,632.763 401,603.5C 401.921,600.664 403.088,597.998 404.5,595.5C 405.167,595.5 405.5,595.167 405.5,594.5C 407.265,587.709 410.099,581.376 414,575.5C 414.667,460.833 414.667,346.167 414,231.5C 412.005,234.796 410.005,238.13 408,241.5C 407.667,311.5 407.333,381.5 407,451.5C 401.833,456.667 396.667,461.833 391.5,467C 379.838,467.5 368.171,467.667 356.5,467.5C 307.997,467.168 259.664,467.501 211.5,468.5C 210.337,447.671 210.171,426.671 211,405.5C 224.954,413.059 234.454,424.392 239.5,439.5C 239.33,440.822 239.663,441.989 240.5,443C 255.333,443.167 270.167,443.333 285,443.5C 300.387,443.484 315.554,442.818 330.5,441.5C 337.76,443.465 345.427,444.132 353.5,443.5C 353.333,413.831 353.5,384.165 354,354.5C 361.555,300.565 384.055,254.398 421.5,216C 422.448,215.517 423.448,215.351 424.5,215.5 Z"/></g>
<g><path style="opacity:1" fill="#977164" d="M 300.5,221.5 C 303.083,222.985 304.416,225.318 304.5,228.5C 302.929,226.365 301.596,224.032 300.5,221.5 Z"/></g>
<g><path style="opacity:1" fill="#020103" d="M 660.5,225.5 C 654.561,232.285 648.727,239.285 643,246.5C 642.502,249.482 642.335,252.482 642.5,255.5C 640.117,259.771 638.117,264.271 636.5,269C 637.348,271.77 637.681,274.603 637.5,277.5C 636.167,278.167 635.167,279.167 634.5,280.5C 625.949,281.795 617.949,284.462 610.5,288.5C 606.067,289.214 602.4,291.214 599.5,294.5C 596.63,295.433 594.296,297.1 592.5,299.5C 584.937,304.224 578.437,310.224 573,317.5C 566.796,325.251 561.63,333.585 557.5,342.5C 555.375,345.088 554.042,348.088 553.5,351.5C 551.863,355.676 550.363,360.009 549,364.5C 545.792,382.914 544.958,401.247 546.5,419.5C 546.667,461.168 546.5,502.835 546,544.5C 545.214,568.766 540.214,592.1 531,614.5C 519.161,639.16 503.328,660.826 483.5,679.5C 480.131,681.884 476.797,684.217 473.5,686.5C 486.007,668.492 493.507,648.492 496,626.5C 498.76,606.297 498.76,586.63 496,567.5C 489.668,541.835 483.334,516.169 477,490.5C 468.979,444.229 471.646,398.895 485,354.5C 499.173,315.32 522.34,282.487 554.5,256C 586.132,233.421 621.465,223.254 660.5,225.5 Z"/></g>
<g><path style="opacity:1" fill="#f6f3f4" d="M 660.5,225.5 C 674.13,226.446 687.797,226.78 701.5,226.5C 701.628,228.655 701.128,230.655 700,232.5C 688.47,243.696 677.303,255.196 666.5,267C 663.854,267.497 661.187,267.664 658.5,267.5C 658.381,262.788 658.381,258.288 658.5,254C 652.886,252.946 647.552,253.446 642.5,255.5C 642.335,252.482 642.502,249.482 643,246.5C 648.727,239.285 654.561,232.285 660.5,225.5 Z"/></g>
<g><path style="opacity:0.99" fill="#b54f49" d="M 405.5,594.5 C 404.833,594.5 404.5,594.833 404.5,595.5C 401.053,597.397 397.72,599.563 394.5,602C 384.745,604.15 375.078,603.816 365.5,601C 358.313,595.605 354.313,588.605 353.5,580C 353.693,573.172 355.193,566.672 358,560.5C 359.873,558.291 362.04,556.458 364.5,555C 369.315,553.569 373.648,551.402 377.5,548.5C 381.804,547.869 386.137,547.369 390.5,547C 404.244,537.778 408.744,524.944 404,508.5C 399.833,500.167 395.667,491.833 391.5,483.5C 379.852,482.501 368.186,482.168 356.5,482.5C 356.59,477.563 356.59,472.563 356.5,467.5C 368.171,467.667 379.838,467.5 391.5,467C 396.667,461.833 401.833,456.667 407,451.5C 407.333,381.5 407.667,311.5 408,241.5C 410.005,238.13 412.005,234.796 414,231.5C 414.667,346.167 414.667,460.833 414,575.5C 410.099,581.376 407.265,587.709 405.5,594.5 Z"/></g>
<g><path style="opacity:0.122" fill="#74897b" d="M 308.5,234.5 C 310.322,240.506 313.156,246.173 317,251.5C 318.752,259.008 321.085,266.341 324,273.5C 326.923,285.37 329.089,297.37 330.5,309.5C 328.016,297.966 325.516,286.299 323,274.5C 319.364,264.238 315.364,254.238 311,244.5C 310.697,241.001 309.864,237.668 308.5,234.5 Z"/></g>
<g><path style="opacity:0.045" fill="#b55049" d="M 655.5,254.5 C 656.525,254.897 656.692,255.563 656,256.5C 655.536,255.906 655.369,255.239 655.5,254.5 Z"/></g>
<g><path style="opacity:1" fill="#f5f3f3" d="M 637.5,277.5 C 637.577,278.75 638.244,279.583 639.5,280C 649.156,279.972 658.823,279.805 668.5,279.5C 668.647,283.536 667.147,286.869 664,289.5C 628.013,328.285 593.013,367.618 559,407.5C 554.964,411.704 550.798,415.704 546.5,419.5C 544.958,401.247 545.792,382.914 549,364.5C 550.363,360.009 551.863,355.676 553.5,351.5C 555.625,348.912 556.958,345.912 557.5,342.5C 561.63,333.585 566.796,325.251 573,317.5C 578.437,310.224 584.937,304.224 592.5,299.5C 595.37,298.567 597.704,296.9 599.5,294.5C 603.335,292.75 607.001,290.75 610.5,288.5C 618.647,286.006 626.647,283.34 634.5,280.5C 635.167,279.167 636.167,278.167 637.5,277.5 Z"/></g>
<g><path style="opacity:1" fill="#939292" d="M 634.5,280.5 C 626.647,283.34 618.647,286.006 610.5,288.5C 617.949,284.462 625.949,281.795 634.5,280.5 Z"/></g>
<g><path style="opacity:1" fill="#939292" d="M 610.5,288.5 C 607.001,290.75 603.335,292.75 599.5,294.5C 602.4,291.214 606.067,289.214 610.5,288.5 Z"/></g>
<g><path style="opacity:1" fill="#939292" d="M 599.5,294.5 C 597.704,296.9 595.37,298.567 592.5,299.5C 594.296,297.1 596.63,295.433 599.5,294.5 Z"/></g>
<g><path style="opacity:1" fill="#939292" d="M 557.5,342.5 C 556.958,345.912 555.625,348.912 553.5,351.5C 554.042,348.088 555.375,345.088 557.5,342.5 Z"/></g>
<g><path style="opacity:0.989" fill="#010204" d="M 293.5,355.5 C 310.331,356.832 319.331,365.998 320.5,383C 319.107,393.132 313.774,400.466 304.5,405C 290.282,408.14 279.782,403.306 273,390.5C 268.089,377.232 271.589,366.732 283.5,359C 286.942,357.816 290.275,356.65 293.5,355.5 Z"/></g>
<g><path style="opacity:0.988" fill="#b5504a" d="M 239.5,439.5 C 234.454,424.392 224.954,413.059 211,405.5C 210.171,426.671 210.337,447.671 211.5,468.5C 211.867,490.199 211.367,512.199 210,534.5C 209.167,536.667 207.667,538.167 205.5,539C 201.979,539.691 198.645,539.191 195.5,537.5C 195.539,536.244 195.039,535.244 194,534.5C 193.456,526.669 192.956,518.836 192.5,511C 193.461,460.174 193.794,409.341 193.5,358.5C 196.834,358.786 200,358.786 203,358.5C 224.346,366.178 237.012,381.178 241,403.5C 241.667,414.833 241.667,426.167 241,437.5C 240.722,438.416 240.222,439.082 239.5,439.5 Z"/></g>
<g><path style="opacity:0.988" fill="#020103" d="M 356.5,482.5 C 368.186,482.168 379.852,482.501 391.5,483.5C 395.667,491.833 399.833,500.167 404,508.5C 408.744,524.944 404.244,537.778 390.5,547C 386.137,547.369 381.804,547.869 377.5,548.5C 365.098,547.055 352.598,547.388 340,549.5C 338.697,549.022 337.531,548.355 336.5,547.5C 331.765,544.111 326.431,542.778 320.5,543.5C 314.527,542.773 309.194,544.107 304.5,547.5C 276.944,546.496 249.61,546.496 222.5,547.5C 221.914,547.291 221.414,546.957 221,546.5C 220.5,538.173 220.334,529.84 220.5,521.5C 236.159,522.384 251.826,522.55 267.5,522C 268.679,517.56 268.679,513.06 267.5,508.5C 267.291,507.006 266.624,505.839 265.5,505C 250.029,504.985 235.029,504.818 220.5,504.5C 219.593,496.817 219.593,489.15 220.5,481.5C 265.835,481.365 311.169,481.699 356.5,482.5 Z M 303.5,505.5 C 315.838,505.333 328.171,505.5 340.5,506C 341.629,510.079 341.796,514.245 341,518.5C 328.562,519.821 316.062,519.821 303.5,518.5C 302.172,514.136 302.172,509.803 303.5,505.5 Z"/></g>
<g><path style="opacity:0.004" fill="#000102" d="M 820.5,521.5 C 821.525,521.897 821.692,522.563 821,523.5C 820.536,522.906 820.369,522.239 820.5,521.5 Z"/></g>
<g><path style="opacity:0.017" fill="#000303" d="M 818.5,526.5 C 819.598,527.601 819.765,528.934 819,530.5C 818.51,529.207 818.343,527.873 818.5,526.5 Z"/></g>
<g><path style="opacity:0.004" fill="#b55049" d="M 195.5,537.5 C 194.833,538.167 194.833,538.167 195.5,537.5 Z"/></g>
<g><path style="opacity:0.004" fill="#b55049" d="M 194.5,539.5 C 195.833,540.167 195.833,540.167 194.5,539.5 Z"/></g>
<g><path style="opacity:0.952" fill="#b54f49" d="M 336.5,547.5 C 340.133,556.133 338.8,563.799 332.5,570.5C 329.013,573.646 324.846,574.979 320,574.5C 314.965,574.956 310.798,573.289 307.5,569.5C 307.5,568.833 307.167,568.5 306.5,568.5C 306.672,567.508 306.338,566.842 305.5,566.5C 300.202,560.404 300.202,554.237 305.5,548C 305.272,547.601 304.938,547.435 304.5,547.5C 309.194,544.107 314.527,542.773 320.5,543.5C 326.431,542.778 331.765,544.111 336.5,547.5 Z"/></g>
<g><path style="opacity:0.035" fill="#b55049" d="M 305.5,566.5 C 304.833,567.167 304.833,567.167 305.5,566.5 Z"/></g>
<g><path style="opacity:0.004" fill="#9c6e61" d="M 306.5,568.5 C 307.167,568.5 307.5,568.833 307.5,569.5C 307.44,570.043 307.107,570.376 306.5,570.5C 305.227,569.743 305.227,569.077 306.5,568.5 Z"/></g>
<g><path style="opacity:0.012" fill="#b55049" d="M 332.5,570.5 C 333.833,571.167 333.833,571.167 332.5,570.5 Z"/></g>
<g><path style="opacity:1" fill="#010305" d="M 284.5,575.5 C 305.268,575.424 312.101,585.09 305,604.5C 296.212,613.905 286.546,614.905 276,607.5C 268.409,597.921 268.909,588.755 277.5,580C 279.898,578.476 282.231,576.976 284.5,575.5 Z"/></g>
<g><path style="opacity:0.008" fill="#7e8174" d="M 319.5,575.5 C 321.429,575.231 323.095,575.731 324.5,577C 323.667,577.167 322.833,577.333 322,577.5C 320.624,577.316 319.791,576.649 319.5,575.5 Z"/></g>
<g><path style="opacity:0.006" fill="#010103" d="M 321.5,611.5 C 322.525,611.897 322.692,612.563 322,613.5C 321.536,612.906 321.369,612.239 321.5,611.5 Z"/></g>
<g><path style="opacity:0.02" fill="#010103" d="M 317.5,699.5 C 318.708,698.766 320.041,698.433 321.5,698.5C 321.334,691.825 321.5,685.158 322,678.5C 322.5,685.826 322.666,693.159 322.5,700.5C 320.585,700.784 318.919,700.451 317.5,699.5 Z"/></g>
<g><path style="opacity:0.055" fill="#092525" d="M 473.5,686.5 C 472.833,687.167 472.833,687.167 473.5,686.5 Z"/></g>
<g><path style="opacity:0.004" fill="#010103" d="M 317.5,699.5 C 316.833,698.167 316.833,698.167 317.5,699.5 Z"/></g>
</svg>
