<?xml version="1.0" encoding="UTF-8"?>
<!DOCTYPE svg PUBLIC "-//W3C//DTD SVG 1.1//EN" "http://www.w3.org/Graphics/SVG/1.1/DTD/svg11.dtd">
<svg xmlns="http://www.w3.org/2000/svg" version="1.1" width="916px" height="893px" style="shape-rendering:geometricPrecision; text-rendering:geometricPrecision; image-rendering:optimizeQuality; fill-rule:evenodd; clip-rule:evenodd" xmlns:xlink="http://www.w3.org/1999/xlink">
<g><path style="opacity:0.998" fill="#b4504a" d="M 469.5,236.5 C 468.448,236.351 467.448,236.517 466.5,237C 429.055,275.398 406.555,321.565 399,375.5C 398.5,405.165 398.333,434.831 398.5,464.5C 390.427,465.132 382.76,464.465 375.5,462.5C 374.333,418.561 374.333,374.561 375.5,330.5C 374.089,318.37 371.923,306.37 369,294.5C 366.085,287.341 363.752,280.008 362,272.5C 358.156,267.173 355.322,261.506 353.5,255.5C 348.274,246.729 342.774,238.062 337,229.5C 333.962,226.631 331.129,223.631 328.5,220.5C 327.167,218.167 327.167,215.833 328.5,213.5C 382.841,213.551 437.174,213.385 491.5,213C 493.673,214.865 494.007,217.031 492.5,219.5C 489.172,222.167 485.506,224.333 481.5,226C 477.656,229.743 473.656,233.243 469.5,236.5 Z"/></g>
<g><path style="opacity:0.122" fill="#74897b" d="M 328.5,213.5 C 327.167,215.833 327.167,218.167 328.5,220.5C 327.275,219.848 326.608,218.681 326.5,217C 326.608,215.319 327.275,214.152 328.5,213.5 Z"/></g>
<g><path style="opacity:0.998" fill="#020103" d="M 469.5,236.5 C 468.847,237.807 468.18,239.14 467.5,240.5C 468.161,345.506 468.161,450.673 467.5,556C 473.765,570.825 476.765,586.325 476.5,602.5C 476.45,626.467 472.617,649.8 465,672.5C 457.572,689.528 447.072,704.361 433.5,717C 427.142,722.031 420.809,727.031 414.5,732C 413.365,732.749 412.365,732.583 411.5,731.5C 417.595,717.374 418.929,702.874 415.5,688C 398.837,687.5 382.17,687.333 365.5,687.5C 365.5,697.5 365.5,707.5 365.5,717.5C 363.833,717.5 362.167,717.5 360.5,717.5C 360.5,707.5 360.5,697.5 360.5,687.5C 342.164,687.333 323.83,687.5 305.5,688C 304.676,701.758 304.176,715.592 304,729.5C 300.376,733.574 296.21,737.074 291.5,740C 288,744.167 284.5,748.333 281,752.5C 281.805,731.981 281.639,711.481 280.5,691C 256.274,688.937 237.441,697.77 224,717.5C 226.973,692.044 238.806,671.878 259.5,657C 266.694,653.495 274.194,650.995 282,649.5C 282.752,637.141 282.585,624.807 281.5,612.5C 275.33,614.429 269.33,616.595 263.5,619C 272.933,605.899 284.099,594.399 297,584.5C 299.5,580.833 302,577.167 304.5,573.5C 304.648,601.138 304.648,628.805 304.5,656.5C 323.167,656.5 341.833,656.5 360.5,656.5C 360.441,648.452 360.441,640.452 360.5,632.5C 362.167,632.5 363.833,632.5 365.5,632.5C 365.5,640.5 365.5,648.5 365.5,656.5C 400.09,664.429 426.924,653.763 446,624.5C 446.921,621.664 448.088,618.998 449.5,616.5C 450.167,616.5 450.5,616.167 450.5,615.5C 452.265,608.709 455.099,602.376 459,596.5C 459.667,481.833 459.667,367.167 459,252.5C 457.005,255.796 455.005,259.13 453,262.5C 452.667,332.5 452.333,402.5 452,472.5C 446.833,477.667 441.667,482.833 436.5,488C 424.838,488.5 413.171,488.667 401.5,488.5C 352.997,488.168 304.664,488.501 256.5,489.5C 255.337,468.671 255.171,447.671 256,426.5C 269.954,434.059 279.454,445.392 284.5,460.5C 284.33,461.822 284.663,462.989 285.5,464C 300.333,464.167 315.167,464.333 330,464.5C 345.387,464.484 360.554,463.818 375.5,462.5C 382.76,464.465 390.427,465.132 398.5,464.5C 398.333,434.831 398.5,405.165 399,375.5C 406.555,321.565 429.055,275.398 466.5,237C 467.448,236.517 468.448,236.351 469.5,236.5 Z"/></g>
<g><path style="opacity:1" fill="#020103" d="M 708.5,247.5 C 701.332,253.515 694.832,260.515 689,268.5C 688.211,270.712 688.378,272.712 689.5,274.5C 685.93,279.138 683.264,284.304 681.5,290C 681.821,294.132 682.821,297.965 684.5,301.5C 683.041,301.433 681.708,301.766 680.5,302.5C 673.699,303.324 667.365,305.324 661.5,308.5C 656.968,309.763 652.635,311.597 648.5,314C 611.306,338.26 592.472,372.76 592,417.5C 591.179,424.679 591.345,431.679 592.5,438.5C 591.672,480.762 591.172,523.096 591,565.5C 590.214,589.766 585.214,613.1 576,635.5C 564.161,660.16 548.328,681.826 528.5,700.5C 525.131,702.884 521.797,705.217 518.5,707.5C 531.007,689.492 538.507,669.492 541,647.5C 543.76,627.297 543.76,607.63 541,588.5C 534.668,562.835 528.334,537.169 522,511.5C 513.979,465.229 516.646,419.895 530,375.5C 544.772,332.068 570.938,297.234 608.5,271C 639.396,251.919 672.729,244.085 708.5,247.5 Z"/></g>
<g><path style="opacity:0.999" fill="#b54f49" d="M 708.5,247.5 C 721.167,247.5 733.833,247.5 746.5,247.5C 746.628,249.655 746.128,251.655 745,253.5C 733.47,264.696 722.303,276.196 711.5,288C 708.854,288.497 706.187,288.664 703.5,288.5C 703.381,283.788 703.381,279.288 703.5,275C 698.845,274.501 694.179,274.334 689.5,274.5C 688.378,272.712 688.211,270.712 689,268.5C 694.832,260.515 701.332,253.515 708.5,247.5 Z"/></g>
<g><path style="opacity:0.99" fill="#b54f49" d="M 450.5,615.5 C 449.833,615.5 449.5,615.833 449.5,616.5C 446.053,618.397 442.72,620.563 439.5,623C 429.745,625.15 420.078,624.816 410.5,622C 403.313,616.605 399.313,609.605 398.5,601C 398.693,594.172 400.193,587.672 403,581.5C 404.873,579.291 407.04,577.458 409.5,576C 414.315,574.569 418.648,572.402 422.5,569.5C 426.804,568.869 431.137,568.369 435.5,568C 449.244,558.778 453.744,545.944 449,529.5C 444.833,521.167 440.667,512.833 436.5,504.5C 424.852,503.501 413.186,503.168 401.5,503.5C 401.59,498.563 401.59,493.563 401.5,488.5C 413.171,488.667 424.838,488.5 436.5,488C 441.667,482.833 446.833,477.667 452,472.5C 452.333,402.5 452.667,332.5 453,262.5C 455.005,259.13 457.005,255.796 459,252.5C 459.667,367.167 459.667,481.833 459,596.5C 455.099,602.376 452.265,608.709 450.5,615.5 Z"/></g>
<g><path style="opacity:0.122" fill="#74897b" d="M 353.5,255.5 C 355.322,261.506 358.156,267.173 362,272.5C 363.752,280.008 366.085,287.341 369,294.5C 371.923,306.37 374.089,318.37 375.5,330.5C 373.016,318.966 370.516,307.299 368,295.5C 364.364,285.238 360.364,275.238 356,265.5C 355.697,262.001 354.864,258.668 353.5,255.5 Z"/></g>
<g><path style="opacity:0.045" fill="#b55049" d="M 700.5,275.5 C 701.525,275.897 701.692,276.563 701,277.5C 700.536,276.906 700.369,276.239 700.5,275.5 Z"/></g>
<g><path style="opacity:0.996" fill="#b4504a" d="M 653.5,371.5 C 651.413,372.585 650.08,374.251 649.5,376.5C 634.123,393.542 618.956,410.876 604,428.5C 600.365,432.158 596.531,435.492 592.5,438.5C 591.345,431.679 591.179,424.679 592,417.5C 592.472,372.76 611.306,338.26 648.5,314C 652.635,311.597 656.968,309.763 661.5,308.5C 668.051,306.87 674.384,304.87 680.5,302.5C 681.708,301.766 683.041,301.433 684.5,301.5C 691.34,301.361 698.173,301.027 705,300.5C 707.833,300.833 710.667,301.167 713.5,301.5C 713.709,302.086 714.043,302.586 714.5,303C 711.711,307.125 708.544,310.958 705,314.5C 689.078,332.692 671.911,351.692 653.5,371.5 Z"/></g>
<g><path style="opacity:1" fill="#5f302e" d="M 680.5,302.5 C 674.384,304.87 668.051,306.87 661.5,308.5C 667.365,305.324 673.699,303.324 680.5,302.5 Z"/></g>
<g><path style="opacity:0.129" fill="#89776d" d="M 653.5,371.5 C 652.92,373.749 651.587,375.415 649.5,376.5C 650.08,374.251 651.413,372.585 653.5,371.5 Z"/></g>
<g><path style="opacity:0.989" fill="#010204" d="M 338.5,376.5 C 355.331,377.832 364.331,386.998 365.5,404C 364.107,414.132 358.774,421.466 349.5,426C 335.282,429.14 324.782,424.306 318,411.5C 313.089,398.232 316.589,387.732 328.5,380C 331.942,378.816 335.275,377.65 338.5,376.5 Z"/></g>
<g><path style="opacity:0.988" fill="#b5504a" d="M 284.5,460.5 C 279.454,445.392 269.954,434.059 256,426.5C 255.171,447.671 255.337,468.671 256.5,489.5C 256.867,511.199 256.367,533.199 255,555.5C 254.167,557.667 252.667,559.167 250.5,560C 246.979,560.691 243.645,560.191 240.5,558.5C 240.539,557.244 240.039,556.244 239,555.5C 238.456,547.669 237.956,539.836 237.5,532C 238.461,481.174 238.794,430.341 238.5,379.5C 241.834,379.786 245,379.786 248,379.5C 269.346,387.178 282.012,402.178 286,424.5C 286.667,435.833 286.667,447.167 286,458.5C 285.722,459.416 285.222,460.082 284.5,460.5 Z"/></g>
<g><path style="opacity:0.988" fill="#020103" d="M 401.5,503.5 C 413.186,503.168 424.852,503.501 436.5,504.5C 440.667,512.833 444.833,521.167 449,529.5C 453.744,545.944 449.244,558.778 435.5,568C 431.137,568.369 426.804,568.869 422.5,569.5C 410.098,568.055 397.598,568.388 385,570.5C 383.697,570.022 382.531,569.355 381.5,568.5C 376.765,565.111 371.431,563.778 365.5,564.5C 359.527,563.773 354.194,565.107 349.5,568.5C 321.944,567.496 294.61,567.496 267.5,568.5C 266.914,568.291 266.414,567.957 266,567.5C 265.5,559.173 265.334,550.84 265.5,542.5C 281.159,543.384 296.826,543.55 312.5,543C 313.679,538.56 313.679,534.06 312.5,529.5C 312.291,528.006 311.624,526.839 310.5,526C 295.029,525.985 280.029,525.818 265.5,525.5C 264.593,517.817 264.593,510.15 265.5,502.5C 310.835,502.365 356.169,502.699 401.5,503.5 Z M 348.5,526.5 C 360.838,526.333 373.171,526.5 385.5,527C 386.629,531.079 386.796,535.245 386,539.5C 373.562,540.821 361.062,540.821 348.5,539.5C 347.172,535.136 347.172,530.803 348.5,526.5 Z"/></g>
<g><path style="opacity:0.004" fill="#000102" d="M 865.5,542.5 C 866.525,542.897 866.692,543.563 866,544.5C 865.536,543.906 865.369,543.239 865.5,542.5 Z"/></g>
<g><path style="opacity:0.017" fill="#000303" d="M 863.5,547.5 C 864.598,548.601 864.765,549.934 864,551.5C 863.51,550.207 863.343,548.873 863.5,547.5 Z"/></g>
<g><path style="opacity:0.004" fill="#b55049" d="M 240.5,558.5 C 239.833,559.167 239.833,559.167 240.5,558.5 Z"/></g>
<g><path style="opacity:0.004" fill="#b55049" d="M 239.5,560.5 C 240.833,561.167 240.833,561.167 239.5,560.5 Z"/></g>
<g><path style="opacity:0.952" fill="#b54f49" d="M 381.5,568.5 C 385.133,577.133 383.8,584.799 377.5,591.5C 374.013,594.646 369.846,595.979 365,595.5C 359.965,595.956 355.798,594.289 352.5,590.5C 352.5,589.833 352.167,589.5 351.5,589.5C 351.672,588.508 351.338,587.842 350.5,587.5C 345.202,581.404 345.202,575.237 350.5,569C 350.272,568.601 349.938,568.435 349.5,568.5C 354.194,565.107 359.527,563.773 365.5,564.5C 371.431,563.778 376.765,565.111 381.5,568.5 Z"/></g>
<g><path style="opacity:0.035" fill="#b55049" d="M 350.5,587.5 C 349.833,588.167 349.833,588.167 350.5,587.5 Z"/></g>
<g><path style="opacity:0.004" fill="#9c6e61" d="M 351.5,589.5 C 352.167,589.5 352.5,589.833 352.5,590.5C 352.44,591.043 352.107,591.376 351.5,591.5C 350.227,590.743 350.227,590.077 351.5,589.5 Z"/></g>
<g><path style="opacity:0.012" fill="#b55049" d="M 377.5,591.5 C 378.833,592.167 378.833,592.167 377.5,591.5 Z"/></g>
<g><path style="opacity:1" fill="#010305" d="M 329.5,596.5 C 350.268,596.424 357.101,606.09 350,625.5C 341.212,634.905 331.546,635.905 321,628.5C 313.409,618.921 313.909,609.755 322.5,601C 324.898,599.476 327.231,597.976 329.5,596.5 Z"/></g>
<g><path style="opacity:0.008" fill="#7e8174" d="M 364.5,596.5 C 366.429,596.231 368.095,596.731 369.5,598C 368.667,598.167 367.833,598.333 367,598.5C 365.624,598.316 364.791,597.649 364.5,596.5 Z"/></g>
<g><path style="opacity:0.006" fill="#010103" d="M 366.5,632.5 C 367.525,632.897 367.692,633.563 367,634.5C 366.536,633.906 366.369,633.239 366.5,632.5 Z"/></g>
<g><path style="opacity:0.02" fill="#010103" d="M 362.5,720.5 C 363.708,719.766 365.041,719.433 366.5,719.5C 366.334,712.825 366.5,706.158 367,699.5C 367.5,706.826 367.666,714.159 367.5,721.5C 365.585,721.784 363.919,721.451 362.5,720.5 Z"/></g>
<g><path style="opacity:0.055" fill="#092525" d="M 518.5,707.5 C 517.833,708.167 517.833,708.167 518.5,707.5 Z"/></g>
<g><path style="opacity:0.004" fill="#010103" d="M 362.5,720.5 C 361.833,719.167 361.833,719.167 362.5,720.5 Z"/></g>
</svg>
