<?xml version="1.0" encoding="UTF-8"?>
<!DOCTYPE svg PUBLIC "-//W3C//DTD SVG 1.1//EN" "http://www.w3.org/Graphics/SVG/1.1/DTD/svg11.dtd">
<svg xmlns="http://www.w3.org/2000/svg" version="1.1" width="893px" height="883px" style="shape-rendering:geometricPrecision; text-rendering:geometricPrecision; image-rendering:optimizeQuality; fill-rule:evenodd; clip-rule:evenodd" xmlns:xlink="http://www.w3.org/1999/xlink">
<g><path style="opacity:0.998" fill="#b4504a" d="M 424.5,215.5 C 423.448,215.351 422.448,215.517 421.5,216C 384.055,254.398 361.555,300.565 354,354.5C 353.5,384.165 353.333,413.831 353.5,443.5C 345.427,444.132 337.76,443.465 330.5,441.5C 329.333,397.561 329.333,353.561 330.5,309.5C 329.089,297.37 326.923,285.37 324,273.5C 321.085,266.341 318.752,259.008 317,251.5C 313.156,246.173 310.322,240.506 308.5,234.5C 306,231.506 304,228.173 302.5,224.5C 302.715,222.821 302.048,221.821 300.5,221.5C 295.801,213.444 290.135,206.111 283.5,199.5C 282.167,197.167 282.167,194.833 283.5,192.5C 337.841,192.551 392.174,192.385 446.5,192C 448.673,193.865 449.007,196.031 447.5,198.5C 444.172,201.167 440.506,203.333 436.5,205C 432.656,208.743 428.656,212.243 424.5,215.5 Z"/></g>
<g><path style="opacity:0.122" fill="#74897b" d="M 283.5,192.5 C 282.167,194.833 282.167,197.167 283.5,199.5C 282.275,198.848 281.608,197.681 281.5,196C 281.608,194.319 282.275,193.152 283.5,192.5 Z"/></g>
<g><path style="opacity:0.998" fill="#020103" d="M 424.5,215.5 C 423.847,216.807 423.18,218.14 422.5,219.5C 423.161,324.506 423.161,429.673 422.5,535C 428.765,549.825 431.765,565.325 431.5,581.5C 431.45,605.467 427.617,628.8 420,651.5C 412.572,668.528 402.072,683.361 388.5,696C 382.142,701.031 375.809,706.031 369.5,711C 368.365,711.749 367.365,711.583 366.5,710.5C 372.595,696.374 373.929,681.874 370.5,667C 353.837,666.5 337.17,666.333 320.5,666.5C 320.5,676.5 320.5,686.5 320.5,696.5C 318.833,696.5 317.167,696.5 315.5,696.5C 315.5,686.5 315.5,676.5 315.5,666.5C 297.164,666.333 278.83,666.5 260.5,667C 259.676,680.758 259.176,694.592 259,708.5C 255.376,712.574 251.21,716.074 246.5,719C 243,723.167 239.5,727.333 236,731.5C 236.805,710.981 236.639,690.481 235.5,670C 211.274,667.937 192.441,676.77 179,696.5C 181.973,671.044 193.806,650.878 214.5,636C 221.694,632.495 229.194,629.995 237,628.5C 237.752,616.141 237.585,603.807 236.5,591.5C 230.33,593.429 224.33,595.595 218.5,598C 227.933,584.899 239.099,573.399 252,563.5C 254.5,559.833 257,556.167 259.5,552.5C 259.648,580.138 259.648,607.805 259.5,635.5C 278.167,635.5 296.833,635.5 315.5,635.5C 315.441,627.452 315.441,619.452 315.5,611.5C 317.167,611.5 318.833,611.5 320.5,611.5C 320.5,619.5 320.5,627.5 320.5,635.5C 355.09,643.429 381.924,632.763 401,603.5C 401.921,600.664 403.088,597.998 404.5,595.5C 405.167,595.5 405.5,595.167 405.5,594.5C 407.265,587.709 410.099,581.376 414,575.5C 414.667,460.833 414.667,346.167 414,231.5C 412.005,234.796 410.005,238.13 408,241.5C 407.667,311.5 407.333,381.5 407,451.5C 401.833,456.667 396.667,461.833 391.5,467C 379.838,467.5 368.171,467.667 356.5,467.5C 307.997,467.168 259.664,467.501 211.5,468.5C 210.337,447.671 210.171,426.671 211,405.5C 217.027,409.348 222.693,413.682 228,418.5C 232.269,424.035 235.769,430.035 238.5,436.5C 239.11,437.391 239.443,438.391 239.5,439.5C 239.33,440.822 239.663,441.989 240.5,443C 255.333,443.167 270.167,443.333 285,443.5C 300.387,443.484 315.554,442.818 330.5,441.5C 337.76,443.465 345.427,444.132 353.5,443.5C 353.333,413.831 353.5,384.165 354,354.5C 361.555,300.565 384.055,254.398 421.5,216C 422.448,215.517 423.448,215.351 424.5,215.5 Z"/></g>
<g><path style="opacity:0.122" fill="#74897b" d="M 300.5,221.5 C 302.048,221.821 302.715,222.821 302.5,224.5C 301.599,223.71 300.932,222.71 300.5,221.5 Z"/></g>
<g><path style="opacity:1" fill="#020103" d="M 663.5,226.5 C 656.332,232.515 649.832,239.515 644,247.5C 643.211,249.712 643.378,251.712 644.5,253.5C 638.282,260.811 635.949,269.144 637.5,278.5C 636.662,278.842 636.328,279.508 636.5,280.5C 636.5,281.167 636.167,281.5 635.5,281.5C 628.699,282.324 622.365,284.324 616.5,287.5C 611.968,288.763 607.635,290.597 603.5,293C 566.306,317.26 547.472,351.76 547,396.5C 546.179,403.679 546.345,410.679 547.5,417.5C 546.672,459.762 546.172,502.096 546,544.5C 545.214,568.766 540.214,592.1 531,614.5C 519.161,639.16 503.328,660.826 483.5,679.5C 480.131,681.884 476.797,684.217 473.5,686.5C 486.007,668.492 493.507,648.492 496,626.5C 498.76,606.297 498.76,586.63 496,567.5C 489.668,541.835 483.334,516.169 477,490.5C 468.979,444.229 471.646,398.895 485,354.5C 499.772,311.068 525.938,276.234 563.5,250C 594.3,230.929 627.634,223.095 663.5,226.5 Z"/></g>
<g><path style="opacity:0.999" fill="#b54f49" d="M 663.5,226.5 C 676.167,226.5 688.833,226.5 701.5,226.5C 701.628,228.655 701.128,230.655 700,232.5C 688.47,243.696 677.303,255.196 666.5,267C 663.854,267.497 661.187,267.664 658.5,267.5C 658.381,262.788 658.381,258.288 658.5,254C 653.845,253.501 649.179,253.334 644.5,253.5C 643.378,251.712 643.211,249.712 644,247.5C 649.832,239.515 656.332,232.515 663.5,226.5 Z"/></g>
<g><path style="opacity:0.99" fill="#b54f49" d="M 405.5,594.5 C 404.833,594.5 404.5,594.833 404.5,595.5C 401.053,597.397 397.72,599.563 394.5,602C 384.745,604.15 375.078,603.816 365.5,601C 358.313,595.605 354.313,588.605 353.5,580C 353.693,573.172 355.193,566.672 358,560.5C 359.873,558.291 362.04,556.458 364.5,555C 369.315,553.569 373.648,551.402 377.5,548.5C 381.804,547.869 386.137,547.369 390.5,547C 404.244,537.778 408.744,524.944 404,508.5C 399.833,500.167 395.667,491.833 391.5,483.5C 379.852,482.501 368.186,482.168 356.5,482.5C 356.59,477.563 356.59,472.563 356.5,467.5C 368.171,467.667 379.838,467.5 391.5,467C 396.667,461.833 401.833,456.667 407,451.5C 407.333,381.5 407.667,311.5 408,241.5C 410.005,238.13 412.005,234.796 414,231.5C 414.667,346.167 414.667,460.833 414,575.5C 410.099,581.376 407.265,587.709 405.5,594.5 Z"/></g>
<g><path style="opacity:0.122" fill="#74897b" d="M 308.5,234.5 C 310.322,240.506 313.156,246.173 317,251.5C 318.752,259.008 321.085,266.341 324,273.5C 326.923,285.37 329.089,297.37 330.5,309.5C 328.016,297.966 325.516,286.299 323,274.5C 319.364,264.238 315.364,254.238 311,244.5C 310.697,241.001 309.864,237.668 308.5,234.5 Z"/></g>
<g><path style="opacity:0.045" fill="#b55049" d="M 655.5,254.5 C 656.525,254.897 656.692,255.563 656,256.5C 655.536,255.906 655.369,255.239 655.5,254.5 Z"/></g>
<g><path style="opacity:0.129" fill="#6b625b" d="M 637.5,278.5 C 638.167,279.167 638.833,279.833 639.5,280.5C 638.5,280.5 637.5,280.5 636.5,280.5C 636.328,279.508 636.662,278.842 637.5,278.5 Z"/></g>
<g><path style="opacity:0.996" fill="#b4504a" d="M 608.5,350.5 C 606.413,351.585 605.08,353.251 604.5,355.5C 603.167,356.167 602.167,357.167 601.5,358.5C 600.5,360.833 598.833,362.5 596.5,363.5C 595.094,363.973 594.427,364.973 594.5,366.5C 588.479,373.85 582.146,380.85 575.5,387.5C 573.738,388.262 572.738,389.596 572.5,391.5C 568.167,396.167 563.833,400.833 559.5,405.5C 557.833,406.5 556.5,407.833 555.5,409.5C 553.855,413.145 551.188,415.812 547.5,417.5C 546.345,410.679 546.179,403.679 547,396.5C 547.472,351.76 566.306,317.26 603.5,293C 607.635,290.597 611.968,288.763 616.5,287.5C 623.051,285.87 629.384,283.87 635.5,281.5C 636.167,281.5 636.5,281.167 636.5,280.5C 637.5,280.5 638.5,280.5 639.5,280.5C 646.34,280.361 653.173,280.027 660,279.5C 662.833,279.833 665.667,280.167 668.5,280.5C 668.709,281.086 669.043,281.586 669.5,282C 666.711,286.125 663.544,289.958 660,293.5C 644.078,311.692 626.911,330.692 608.5,350.5 Z"/></g>
<g><path style="opacity:1" fill="#5f302e" d="M 635.5,281.5 C 629.384,283.87 623.051,285.87 616.5,287.5C 622.365,284.324 628.699,282.324 635.5,281.5 Z"/></g>
<g><path style="opacity:0.129" fill="#89776d" d="M 608.5,350.5 C 607.92,352.749 606.587,354.415 604.5,355.5C 605.08,353.251 606.413,351.585 608.5,350.5 Z"/></g>
<g><path style="opacity:0.989" fill="#010204" d="M 293.5,355.5 C 310.331,356.832 319.331,365.998 320.5,383C 319.107,393.132 313.774,400.466 304.5,405C 290.282,408.14 279.782,403.306 273,390.5C 268.089,377.232 271.589,366.732 283.5,359C 286.942,357.816 290.275,356.65 293.5,355.5 Z"/></g>
<g><path style="opacity:0.106" fill="#877a72" d="M 604.5,355.5 C 604.5,357.5 603.5,358.5 601.5,358.5C 602.167,357.167 603.167,356.167 604.5,355.5 Z"/></g>
<g><path style="opacity:0.988" fill="#b5504a" d="M 240.5,437.5 C 240.158,436.662 239.492,436.328 238.5,436.5C 235.769,430.035 232.269,424.035 228,418.5C 222.693,413.682 217.027,409.348 211,405.5C 210.171,426.671 210.337,447.671 211.5,468.5C 211.867,490.199 211.367,512.199 210,534.5C 209.167,536.667 207.667,538.167 205.5,539C 201.979,539.691 198.645,539.191 195.5,537.5C 195.539,536.244 195.039,535.244 194,534.5C 193.456,526.669 192.956,518.836 192.5,511C 193.461,460.174 193.794,409.341 193.5,358.5C 196.834,358.786 200,358.786 203,358.5C 224.346,366.178 237.012,381.178 241,403.5C 241.826,415.008 241.659,426.341 240.5,437.5 Z"/></g>
<g><path style="opacity:0.043" fill="#8d746a" d="M 596.5,363.5 C 596.573,365.027 595.906,366.027 594.5,366.5C 594.427,364.973 595.094,363.973 596.5,363.5 Z"/></g>
<g><path style="opacity:0.027" fill="#867b71" d="M 575.5,387.5 C 575.262,389.404 574.262,390.738 572.5,391.5C 572.738,389.596 573.738,388.262 575.5,387.5 Z"/></g>
<g><path style="opacity:0.016" fill="#807a70" d="M 559.5,405.5 C 559.167,407.833 557.833,409.167 555.5,409.5C 556.5,407.833 557.833,406.5 559.5,405.5 Z"/></g>
<g><path style="opacity:0.031" fill="#9d8375" d="M 238.5,436.5 C 239.492,436.328 240.158,436.662 240.5,437.5C 240.672,438.492 240.338,439.158 239.5,439.5C 239.443,438.391 239.11,437.391 238.5,436.5 Z"/></g>
<g><path style="opacity:0.988" fill="#020103" d="M 356.5,482.5 C 368.186,482.168 379.852,482.501 391.5,483.5C 395.667,491.833 399.833,500.167 404,508.5C 408.744,524.944 404.244,537.778 390.5,547C 386.137,547.369 381.804,547.869 377.5,548.5C 365.098,547.055 352.598,547.388 340,549.5C 338.697,549.022 337.531,548.355 336.5,547.5C 331.765,544.111 326.431,542.778 320.5,543.5C 314.527,542.773 309.194,544.107 304.5,547.5C 276.944,546.496 249.61,546.496 222.5,547.5C 221.914,547.291 221.414,546.957 221,546.5C 220.5,538.173 220.334,529.84 220.5,521.5C 236.159,522.384 251.826,522.55 267.5,522C 268.679,517.56 268.679,513.06 267.5,508.5C 267.291,507.006 266.624,505.839 265.5,505C 250.029,504.985 235.029,504.818 220.5,504.5C 219.593,496.817 219.593,489.15 220.5,481.5C 265.835,481.365 311.169,481.699 356.5,482.5 Z M 303.5,505.5 C 315.838,505.333 328.171,505.5 340.5,506C 341.629,510.079 341.796,514.245 341,518.5C 328.562,519.821 316.062,519.821 303.5,518.5C 302.172,514.136 302.172,509.803 303.5,505.5 Z"/></g>
<g><path style="opacity:0.004" fill="#000102" d="M 820.5,521.5 C 821.525,521.897 821.692,522.563 821,523.5C 820.536,522.906 820.369,522.239 820.5,521.5 Z"/></g>
<g><path style="opacity:0.017" fill="#000303" d="M 818.5,526.5 C 819.598,527.601 819.765,528.934 819,530.5C 818.51,529.207 818.343,527.873 818.5,526.5 Z"/></g>
<g><path style="opacity:0.004" fill="#b55049" d="M 195.5,537.5 C 194.833,538.167 194.833,538.167 195.5,537.5 Z"/></g>
<g><path style="opacity:0.004" fill="#b55049" d="M 194.5,539.5 C 195.833,540.167 195.833,540.167 194.5,539.5 Z"/></g>
<g><path style="opacity:0.952" fill="#b54f49" d="M 336.5,547.5 C 340.133,556.133 338.8,563.799 332.5,570.5C 329.013,573.646 324.846,574.979 320,574.5C 314.965,574.956 310.798,573.289 307.5,569.5C 307.5,568.833 307.167,568.5 306.5,568.5C 306.672,567.508 306.338,566.842 305.5,566.5C 300.202,560.404 300.202,554.237 305.5,548C 305.272,547.601 304.938,547.435 304.5,547.5C 309.194,544.107 314.527,542.773 320.5,543.5C 326.431,542.778 331.765,544.111 336.5,547.5 Z"/></g>
<g><path style="opacity:0.035" fill="#b55049" d="M 305.5,566.5 C 304.833,567.167 304.833,567.167 305.5,566.5 Z"/></g>
<g><path style="opacity:0.004" fill="#9c6e61" d="M 306.5,568.5 C 307.167,568.5 307.5,568.833 307.5,569.5C 307.44,570.043 307.107,570.376 306.5,570.5C 305.227,569.743 305.227,569.077 306.5,568.5 Z"/></g>
<g><path style="opacity:0.012" fill="#b55049" d="M 332.5,570.5 C 333.833,571.167 333.833,571.167 332.5,570.5 Z"/></g>
<g><path style="opacity:1" fill="#010305" d="M 284.5,575.5 C 305.268,575.424 312.101,585.09 305,604.5C 296.212,613.905 286.546,614.905 276,607.5C 268.409,597.921 268.909,588.755 277.5,580C 279.898,578.476 282.231,576.976 284.5,575.5 Z"/></g>
<g><path style="opacity:0.008" fill="#7e8174" d="M 319.5,575.5 C 321.429,575.231 323.095,575.731 324.5,577C 323.667,577.167 322.833,577.333 322,577.5C 320.624,577.316 319.791,576.649 319.5,575.5 Z"/></g>
<g><path style="opacity:0.006" fill="#010103" d="M 321.5,611.5 C 322.525,611.897 322.692,612.563 322,613.5C 321.536,612.906 321.369,612.239 321.5,611.5 Z"/></g>
<g><path style="opacity:0.02" fill="#010103" d="M 317.5,699.5 C 318.708,698.766 320.041,698.433 321.5,698.5C 321.334,691.825 321.5,685.158 322,678.5C 322.5,685.826 322.666,693.159 322.5,700.5C 320.585,700.784 318.919,700.451 317.5,699.5 Z"/></g>
<g><path style="opacity:0.055" fill="#092525" d="M 473.5,686.5 C 472.833,687.167 472.833,687.167 473.5,686.5 Z"/></g>
<g><path style="opacity:0.004" fill="#010103" d="M 317.5,699.5 C 316.833,698.167 316.833,698.167 317.5,699.5 Z"/></g>
</svg>
