<?xml version="1.0" standalone="no"?>
<!DOCTYPE svg PUBLIC "-//W3C//DTD SVG 20010904//EN"
 "http://www.w3.org/TR/2001/REC-SVG-20010904/DTD/svg10.dtd">
<svg version="1.0" xmlns="http://www.w3.org/2000/svg"
 width="916.000000pt" height="893.000000pt" viewBox="0 0 916.000000 893.000000"
 preserveAspectRatio="xMidYMid meet">

<g transform="translate(0.000000,893.000000) scale(0.100000,-0.100000)"
fill="#000000" stroke="none">
<path d="M3287 6774 c-14 -14 -7 -27 39 -71 92 -88 243 -349 319 -553 65 -173
93 -283 124 -490 5 -30 8 -352 7 -715 l-1 -660 -462 -3 c-443 -2 -462 -1 -468
16 -7 24 4 54 17 46 7 -5 9 53 6 172 -5 159 -8 187 -30 250 -33 90 -98 194
-151 240 -52 44 -187 111 -244 120 -41 6 -42 6 -48 -27 -6 -35 -2 -1282 6
-1562 4 -152 5 -160 28 -178 14 -11 39 -19 61 -19 67 0 68 5 74 366 4 175 10
322 14 326 4 4 131 7 282 6 151 -1 483 0 738 1 l462 1 0 -45 c0 -25 7 -60 16
-77 l16 -31 -64 7 c-128 12 -1323 4 -1366 -10 -9 -3 -12 -30 -10 -111 l3 -108
235 -5 235 -5 5 -73 c3 -41 1 -76 -3 -79 -5 -3 -113 -8 -240 -11 -128 -2 -234
-8 -237 -12 -3 -5 -3 -59 0 -121 l5 -114 417 0 c229 0 419 -3 423 -7 4 -4 0
-26 -9 -49 -21 -53 -14 -104 23 -159 39 -58 64 -72 140 -77 58 -3 72 0 116 24
64 36 89 83 92 173 l1 65 39 7 c125 21 391 16 328 -6 -11 -4 -31 -13 -45 -20
-14 -7 -36 -16 -50 -20 -32 -8 -88 -59 -101 -92 -25 -67 -7 -199 35 -246 11
-13 17 -17 12 -8 -5 8 13 -7 40 -35 82 -83 102 -95 153 -95 73 0 210 50 225
82 3 7 3 2 0 -12 -17 -76 -67 -151 -164 -247 -136 -135 -224 -165 -484 -167
l-181 -1 0 75 c0 41 2 98 5 125 5 46 3 50 -18 53 -47 7 -54 -12 -50 -137 l3
-116 -270 4 c-148 2 -273 5 -277 8 -4 2 -6 191 -3 419 2 227 2 414 0 414 -2 0
-20 -24 -38 -53 -19 -29 -89 -104 -156 -167 -105 -98 -209 -213 -235 -257 -7
-12 32 3 129 51 30 14 54 21 59 15 12 -10 21 -283 12 -331 -6 -32 -9 -34 -68
-45 -91 -18 -193 -72 -262 -140 -73 -73 -138 -163 -172 -239 -27 -61 -76 -212
-89 -274 l-7 -35 33 44 c109 144 223 211 409 241 97 15 137 13 144 -7 10 -25
5 -555 -4 -574 -16 -30 5 -40 25 -12 35 47 129 138 173 167 l42 29 0 212 c0
176 3 215 15 225 20 16 535 3 540 -14 2 -6 6 -83 9 -170 4 -88 8 -162 10 -164
16 -16 24 28 30 170 4 89 9 165 12 167 2 3 115 5 252 5 l247 1 5 -75 c3 -41 2
-112 -1 -157 -7 -87 -45 -212 -66 -220 -7 -3 -13 -9 -13 -14 0 -14 59 19 116
65 28 23 66 52 85 66 53 39 187 180 237 248 43 60 131 237 147 297 9 33 23 83
31 110 48 164 77 527 56 713 -7 60 -26 136 -53 214 l-41 120 7 227 c4 125 8
828 9 1563 l1 1337 45 47 c25 25 68 63 95 84 71 53 107 89 101 99 -7 10 -1628
15 -1639 5z m578 -3173 c4 -33 4 -65 0 -70 -4 -7 -74 -11 -196 -11 l-189 0 0
63 c0 35 2 66 4 68 2 2 87 6 189 7 l185 4 7 -61z"/>
<path d="M3520 3602 c0 -4 9 -8 20 -9 11 -1 20 2 20 8 0 5 -9 9 -20 9 -11 0
-20 -4 -20 -8z"/>
<path d="M6700 6445 c-270 -42 -496 -138 -713 -302 -132 -99 -352 -324 -389
-397 -11 -23 -35 -61 -52 -86 -64 -93 -168 -289 -208 -390 -50 -127 -111 -366
-133 -521 -10 -63 -19 -206 -22 -319 -9 -358 24 -634 112 -940 117 -403 129
-474 130 -745 0 -278 -26 -455 -95 -634 -29 -76 -90 -191 -101 -191 -5 0 -9
-6 -9 -13 0 -7 -15 -30 -32 -52 -18 -22 -25 -34 -17 -28 9 7 18 10 22 7 3 -3
13 6 22 20 10 14 22 26 27 26 14 0 122 101 183 171 63 72 163 207 207 279 176
290 225 425 269 740 20 145 21 204 25 915 3 815 7 952 29 1054 42 196 151 392
312 562 140 147 307 244 492 286 37 8 80 18 96 23 l30 8 -37 1 c-21 1 -38 4
-38 9 1 22 42 134 66 177 16 27 27 61 26 77 -3 40 19 86 67 140 46 52 125 108
153 108 10 0 18 4 18 9 0 24 -299 28 -440 6z"/>
<path d="M6453 5115 c-56 -69 -55 -79 3 -21 25 26 44 52 42 60 -2 7 -21 -9
-45 -39z"/>
<path d="M3350 5151 c-72 -22 -148 -90 -176 -157 -33 -78 -10 -182 56 -258 52
-58 102 -80 190 -80 69 -1 79 2 126 33 70 46 124 128 124 187 0 54 -31 139
-71 194 -52 71 -162 107 -249 81z"/>
<path d="M6363 5015 c-9 -25 4 -29 17 -6 7 15 7 21 0 21 -6 0 -13 -7 -17 -15z"/>
<path d="M6317 4962 c-19 -21 -22 -32 -7 -32 6 0 10 7 10 15 0 7 8 19 18 24 9
6 12 11 6 11 -6 0 -18 -8 -27 -18z"/>
<path d="M3265 2941 c-99 -61 -130 -157 -82 -251 86 -172 334 -121 354 72 7
71 -22 137 -75 173 -47 32 -150 35 -197 6z"/>
</g>
</svg>
