<?xml version="1.0" standalone="yes"?>
<svg xmlns="http://www.w3.org/2000/svg" width="916" height="893">
<path style="fill:#fbfcfc; stroke:none;" d="M0 0L0 893L17 893L17 6L894 6L894 893L916 893L916 0L0 0z"/>
<path style="fill:#619b8b; stroke:none;" d="M17 6L17 892L894 892L894 6L17 6z"/>
<path style="fill:#040406; stroke:none;" d="M70 101L70 202L71 202C77.8279 186.402 86.0072 179.557 103 180C101.174 174.591 100.438 168.083 98.027 163C95.0166 156.653 90.8997 152.614 92.108 145C94.022 132.939 105.094 130.247 114 124.926C126.569 117.416 137.122 107.702 151 102L126 101L70 101z"/>
<path style="fill:#fbfcfc; stroke:none;" d="M103 180C98.1859 179.677 93.7387 178.841 88.9992 180.33C64.977 187.877 70 220.923 70 240L71 240C87.1287 201.271 118.668 164.334 148 135C159.572 123.428 174.792 113.621 185 101C174.51 101 161.118 98.7779 151 101.637C137.062 105.576 125.634 116.464 114 124.301C105.439 130.068 95.1656 131.344 92.2546 143C89.9084 152.395 95.3576 156.995 98.4506 165C100.356 169.93 100.723 175.104 103 180M727 101C739.276 116.177 757.457 127.557 770.911 142C811.88 185.982 851.933 242.136 868 301C870.292 295.538 869 287.887 869 282L869 243L869 188C869 180.382 870.759 170.145 867.772 163C862.087 149.406 845.878 139.588 834 132.047C815.981 120.607 791.229 105.328 770 101.339C756.523 98.8073 740.714 101 727 101z"/>
<path style="fill:#040406; stroke:none;" d="M771 101L771 102C797.004 110.668 824.29 124.237 846 140.989C854.281 147.379 864.102 154.94 868 165L869 165L869 101L771 101z"/>
<path style="fill:#b3524c; stroke:none;" d="M331 216C332.413 225.157 343.129 234.798 347.85 243C358.853 262.115 368.54 282.355 373.5 304C385.525 356.474 372.45 411.012 379 464L398 464C398.155 405.319 397.425 347.279 426.309 294C436.835 274.583 450.207 256.147 465.803 240.468C472.542 233.693 488.443 225.657 490 216L438 215L331 216z"/>
<path style="fill:#040406; stroke:none;" d="M468 237C452.689 255.045 437.674 272.034 426.309 293C397.296 346.517 398.032 405.045 398 464L284 465C282.749 452.513 268.127 426.212 253 429C255.569 442.84 254 457.95 254 472C254 475.506 252.026 484.661 254.643 487.218C257.029 489.551 262.936 488.06 266 488.197C277.576 488.715 289.391 488 301 488C322.628 488 344.299 489.254 366 488.996C379.923 488.831 394.018 486.839 408 488.17C424.399 489.73 445.5 489.816 452.422 471C454.035 466.616 452.368 458.764 452.13 454C451.636 444.072 452 433.96 452 424L452 311C452 294.533 446.772 264.267 460 252C462.763 263.604 461 277.106 461 289C461 313.036 461.089 337.035 460.039 361C459.193 380.333 460.821 399.727 460.821 419C460.821 448.91 459.048 479.1 459 509C458.939 547.121 466.033 588.085 447.047 623C429.052 656.093 399.408 658 366 658L368 633C355.502 631.068 361 650.137 361 658L305 657L306 573L305 573L263 621L281 613C283.213 620.876 286.678 641.414 281.972 648.697C278.402 654.223 262.056 655.707 256 659.904C238.574 671.981 225.719 696.957 224 718L225 718C233.847 703.667 248.396 694.64 265 692.134C269.202 691.5 278.046 688.933 280.972 693.318C283.571 697.213 282 705.497 282 710C282 724.3 282.793 738.81 281 753C287.002 748.345 303.423 735.202 304.772 727.985C306.704 717.646 300.148 698.129 306.028 689.318C308.534 685.563 316.146 687 320 687C333.8 687 348.484 685.782 362 689L362 722L365 722L366 689L402 688L415.436 689.603L418 702L412 734C447.504 716.315 467.611 677.442 473.919 640C477.1 621.117 478.867 599.974 475.536 581C473.78 570.995 467.611 560.91 467.043 551C466.016 533.071 468 514.967 468 497C468 456.009 467.532 414.988 468.004 374C468.368 342.392 468 310.657 468 279C468 266.799 471.505 248.396 468 237M517 710C530.47 702.251 541.271 690.07 550.789 678C563.533 661.839 575.393 642.569 581.996 623C595.911 581.763 591.934 536.829 592 494C592.035 471.269 592.571 448.706 592.015 426C590.641 369.924 625.121 310.063 685 302L685 301L680 301C687.66 281.115 691.251 258.386 713 249C702.735 244.392 688.828 247.361 678 247.964C629.44 250.669 582.246 282.002 557.255 323C548.902 336.702 540.151 349.988 534.204 365C517.473 407.232 514.78 455.305 520.286 500C524.166 531.491 536.689 560.753 541.561 592C547.98 633.165 540.372 675.681 517 710z"/>
<path style="fill:#619b8b; stroke:none;" d="M709.667 250.333L710.333 250.667L709.667 250.333z"/>
<path style="fill:#a49b9b; stroke:none;" d="M711 250L711 251L714 251L711 250z"/>
<path style="fill:#fbfcfc; stroke:none;" d="M699 268L698 269L696 268L698 272L694 274L704 274L704 278C707.248 278 706.926 281.201 707 284L706 284L706 281L705 281L705 289C719.568 287.418 737.34 262.58 745 251C729.805 250.998 699.373 243.852 699 268z"/>
<path style="fill:#a49b9b; stroke:none;" d="M734 250L734 251L741 251L734 250M744 250L746 252L746 250L744 250z"/>
<path style="fill:#619b8b; stroke:none;" d="M707 251L708 252L707 251z"/>
<path style="fill:#a49b9b; stroke:none;" d="M708.667 251.333L709.333 251.667L708.667 251.333z"/>
<path style="fill:#619b8b; stroke:none;" d="M459 252L460 253L459 252M706 252L707 253L706 252z"/>
<path style="fill:#a49b9b; stroke:none;" d="M744 252L745 253L744 252z"/>
<path style="fill:#b3524c; stroke:none;" d="M405 488L405 489C407.997 493.093 405.458 499.776 410.394 502.972C416.156 506.704 424.016 502.31 429.83 504.607C434.087 506.289 436.558 511.426 438.947 515C445.285 524.484 451.715 533.009 451.946 545C452.149 555.518 444.264 567.939 434 571.293C426.35 573.793 418.5 572.411 411.001 577.005C398.505 584.661 400.382 601.199 409.005 610.961C411.955 614.301 415.251 617.852 419.001 620.301C429.415 627.101 448.485 619.521 453.673 608.985C464.124 587.761 457.61 563.349 459.7 541C460.69 530.408 458.876 518.764 459.004 508C459.289 484.053 460 460.022 460 436C460 375.155 461 314.093 461 253C453.77 254.243 453.304 262.915 452.965 269C452.054 285.332 452 301.606 452 318L452 433C452 446.704 456.424 466.987 447.471 477.96C436.299 491.653 420.321 488.316 405 488z"/>
<path style="fill:#619b8b; stroke:none;" d="M704 253L702 256L704 253z"/>
<path style="fill:#a49b9b; stroke:none;" d="M705 253L706 254L705 253M743 253L744 254L743 253M704 254L705 255L704 254M707 254L708 255L707 254M742 254L743 255L742 254M703 255L704 256L703 255M741 255L742 256L741 255M701 256C697.827 259.779 684.625 271.858 694 275L695 271L698 272L696 268L699 268L704 257L701 256M704 256L705 257L704 256z"/>
<path style="fill:#619b8b; stroke:none;" d="M700 257L701 258L700 257z"/>
<path style="fill:#a49b9b; stroke:none;" d="M704 258L705 259L704 258M702 260L703 261L702 260z"/>
<path style="fill:#619b8b; stroke:none;" d="M695 262L696 263L695 262z"/>
<path style="fill:#a49b9b; stroke:none;" d="M735 262L736 263L735 262z"/>
<path style="fill:#619b8b; stroke:none;" d="M694 263L695 264L694 263z"/>
<path style="fill:#a49b9b; stroke:none;" d="M734 263L735 264L734 263z"/>
<path style="fill:#619b8b; stroke:none;" d="M693 264L694 265L693 264z"/>
<path style="fill:#a49b9b; stroke:none;" d="M733 264L734 265L733 264M732 265L733 266L732 265z"/>
<path style="fill:#619b8b; stroke:none;" d="M691 267L692 268L691 267z"/>
<path style="fill:#a49b9b; stroke:none;" d="M698 269L698 270L702 269L698 269z"/>
<path style="fill:#b3524c; stroke:none;" d="M690 269L691 270L690 269z"/>
<path style="fill:#619b8b; stroke:none;" d="M690 270L691 271L690 270z"/>
<path style="fill:#a49b9b; stroke:none;" d="M728 270L729 271L728 270M706 275L707 279L711 277L713 271L706 275M727 271L728 272L727 271M726 272L727 273L726 272M706 273L707 274L706 273M725 273L726 274L725 273M702.667 274.333L703.333 274.667L702.667 274.333M724 274L725 275L724 274M723 275L724 276L723 275M722 276L723 277L722 276M705 277L704 285L705 285L705 281L706 281L706 284L707 284L705 277M712 277L713 278L712 277M714.667 278.333L715.333 278.667L714.667 278.333M720 279L721 280L720 279M719 280L720 281L719 280M715 281L716 282L715 281M718 281L719 282L718 281M717 282L718 283L717 282M716 283L717 284L716 283M715 284L716 285L715 284M712 286L713 287L712 286M711 287L712 288L711 287M709 288L710 289L709 288M706 289L707 290L706 289M713 301L711 306L715 301L713 301M688 302L688 303L707 303L688 302z"/>
<path style="fill:#fbfcfc; stroke:none;" d="M594 438L595 438C631.256 390.242 679.556 351.089 714 302C694.219 302.506 674.313 302.777 656 311.323C610.297 332.653 585.767 389.344 594 438z"/>
<path style="fill:#a49b9b; stroke:none;" d="M708 302L709 303L708 302z"/>
<path style="fill:#b3524c; stroke:none;" d="M677 303L678 304L677 303z"/>
<path style="fill:#619b8b; stroke:none;" d="M678 303L679 304L678 303z"/>
<path style="fill:#a49b9b; stroke:none;" d="M679 303L679 304L683 304L679 303z"/>
<path style="fill:#b3524c; stroke:none;" d="M673 304L674 305L673 304z"/>
<path style="fill:#619b8b; stroke:none;" d="M674 304L675 305L674 304z"/>
<path style="fill:#a49b9b; stroke:none;" d="M675.667 304.333L676.333 304.667L675.667 304.333z"/>
<path style="fill:#619b8b; stroke:none;" d="M670 305L671 306L670 305z"/>
<path style="fill:#a49b9b; stroke:none;" d="M671.667 305.333L672.333 305.667L671.667 305.333z"/>
<path style="fill:#619b8b; stroke:none;" d="M667 306L668 307L667 306z"/>
<path style="fill:#a49b9b; stroke:none;" d="M668 306L669 307L668 306z"/>
<path style="fill:#619b8b; stroke:none;" d="M664 307L665 308L664 307z"/>
<path style="fill:#a49b9b; stroke:none;" d="M665.667 307.333L666.333 307.667L665.667 307.333M709 307L710 308L709 307M662.667 308.333L663.333 308.667L662.667 308.333M708 308L709 309L708 308z"/>
<path style="fill:#619b8b; stroke:none;" d="M659 309L660 310L659 309z"/>
<path style="fill:#a49b9b; stroke:none;" d="M660 309L661 310L660 309M707 309L708 310L707 309M657 310L658 311L657 310z"/>
<path style="fill:#b3524c; stroke:none;" d="M654 311L655 312L654 311z"/>
<path style="fill:#a49b9b; stroke:none;" d="M655 311L656 312L655 311z"/>
<path style="fill:#b3524c; stroke:none;" d="M652 312L653 313L652 312z"/>
<path style="fill:#a49b9b; stroke:none;" d="M653 312L654 313L653 312M705 312L706 313L705 312M651 313L652 314L651 313M704 313L705 314L704 313M649.667 314.333L650.333 314.667L649.667 314.333M703 314L704 315L703 314z"/>
<path style="fill:#619b8b; stroke:none;" d="M647 315L648 316L647 315z"/>
<path style="fill:#a49b9b; stroke:none;" d="M648 315L649 316L648 315M702 315L703 316L702 315M646 316L647 317L646 316M701 316L702 317L701 316z"/>
<path style="fill:#b3524c; stroke:none;" d="M644 317L645 318L644 317z"/>
<path style="fill:#a49b9b; stroke:none;" d="M645 317L646 318L645 317M700 317L701 318L700 317M643 318L644 319L643 318z"/>
<path style="fill:#b3524c; stroke:none;" d="M641 319L642 320L641 319z"/>
<path style="fill:#a49b9b; stroke:none;" d="M642 319L643 320L642 319M640 320L641 321L640 320M639 321L640 322L639 321M697 321L698 322L697 321z"/>
<path style="fill:#b3524c; stroke:none;" d="M637 322L638 323L637 322z"/>
<path style="fill:#a49b9b; stroke:none;" d="M638 322L639 323L638 322M696 322L697 323L696 322M636 323L637 324L636 323M695 323L696 324L695 323M635 324L636 325L635 324M694 324L695 325L694 324M634 325L635 326L634 325z"/>
<path style="fill:#b3524c; stroke:none;" d="M632 326L630 329L632 326z"/>
<path style="fill:#a49b9b; stroke:none;" d="M633 326L634 327L633 326M632 327L633 328L632 327M631 328L632 329L631 328z"/>
<path style="fill:#619b8b; stroke:none;" d="M629 329L630 330L629 329M628 330L629 331L628 330z"/>
<path style="fill:#a49b9b; stroke:none;" d="M689 330L690 331L689 330z"/>
<path style="fill:#b3524c; stroke:none;" d="M627 331L628 332L627 331z"/>
<path style="fill:#a49b9b; stroke:none;" d="M688 331L689 332L688 331z"/>
<path style="fill:#b3524c; stroke:none;" d="M626 332L627 333L626 332z"/>
<path style="fill:#a49b9b; stroke:none;" d="M687 332L688 333L687 332z"/>
<path style="fill:#619b8b; stroke:none;" d="M625 333L626 334L625 333z"/>
<path style="fill:#b3524c; stroke:none;" d="M624 334L625 335L624 334z"/>
<path style="fill:#a49b9b; stroke:none;" d="M625 334L626 335L625 334M624 335L625 336L624 335M623 336L624 337L623 336M622 337L623 338L622 337M683 337L684 338L683 337M621 338L622 339L621 338M682 338L683 339L682 338z"/>
<path style="fill:#619b8b; stroke:none;" d="M620 339L621 340L620 339z"/>
<path style="fill:#a49b9b; stroke:none;" d="M681 339L682 340L681 339z"/>
<path style="fill:#b3524c; stroke:none;" d="M619 340L618 342L619 340z"/>
<path style="fill:#a49b9b; stroke:none;" d="M620 340L621 341L620 340M619 341L620 342L619 341M618 342L619 343L618 342M617 343L618 344L617 343z"/>
<path style="fill:#619b8b; stroke:none;" d="M616 344L617 345L616 344z"/>
<path style="fill:#a49b9b; stroke:none;" d="M677 344L678 345L677 344z"/>
<path style="fill:#b3524c; stroke:none;" d="M615 345L616 346L615 345z"/>
<path style="fill:#a49b9b; stroke:none;" d="M676 345L677 346L676 345M615 346L616 347L615 346M675 346L676 347L675 346M614 347L615 348L614 347M674 347L675 348L674 347z"/>
<path style="fill:#619b8b; stroke:none;" d="M613 348L614 349L613 348z"/>
<path style="fill:#a49b9b; stroke:none;" d="M613 349L614 350L613 349M612 350L613 351L612 350z"/>
<path style="fill:#619b8b; stroke:none;" d="M611 351L612 352L611 351z"/>
<path style="fill:#a49b9b; stroke:none;" d="M611 352L612 353L611 352M610 353L609 356L610 353z"/>
<path style="fill:#b3524c; stroke:none;" d="M609 354L610 355L609 354z"/>
<path style="fill:#619b8b; stroke:none;" d="M608 356L609 357L608 356z"/>
<path style="fill:#a49b9b; stroke:none;" d="M607 358L608 359L607 358z"/>
<path style="fill:#619b8b; stroke:none;" d="M606 359L607 360L606 359z"/>
<path style="fill:#a49b9b; stroke:none;" d="M663 359L664 360L663 359M606 360L607 361L606 360M662 360L663 361L662 360z"/>
<path style="fill:#619b8b; stroke:none;" d="M605 361L606 362L605 361z"/>
<path style="fill:#a49b9b; stroke:none;" d="M661 361L662 362L661 361M605 362L606 363L605 362z"/>
<path style="fill:#619b8b; stroke:none;" d="M604 363L605 364L604 363z"/>
<path style="fill:#a49b9b; stroke:none;" d="M604 364L605 365L604 364z"/>
<path style="fill:#619b8b; stroke:none;" d="M603 365L604 366L603 365z"/>
<path style="fill:#a49b9b; stroke:none;" d="M603 366L604 367L603 366z"/>
<path style="fill:#619b8b; stroke:none;" d="M602 367L603 368L602 367z"/>
<path style="fill:#a49b9b; stroke:none;" d="M656 367L657 368L656 367M602 368L603 369L602 368M655 368L656 369L655 368z"/>
<path style="fill:#619b8b; stroke:none;" d="M601 369L602 370L601 369z"/>
<path style="fill:#a49b9b; stroke:none;" d="M601 370L602 371L601 370z"/>
<path style="fill:#619b8b; stroke:none;" d="M600.333 371.667L600.667 372.333L600.333 371.667z"/>
<path style="fill:#a49b9b; stroke:none;" d="M600 373L601 374L600 373z"/>
<path style="fill:#619b8b; stroke:none;" d="M599 374L600 375L599 374z"/>
<path style="fill:#a49b9b; stroke:none;" d="M599.333 375.667L599.667 376.333L599.333 375.667M649 375L650 376L649 375z"/>
<path style="fill:#b3524c; stroke:none;" d="M598 376L599 377L598 376z"/>
<path style="fill:#a49b9b; stroke:none;" d="M648 376L649 377L648 376z"/>
<path style="fill:#040406; stroke:none;" d="M338 377.465C304.794 383.398 313.501 433.506 346 427.532C377.999 421.649 368.177 372.072 338 377.465z"/>
<path style="fill:#619b8b; stroke:none;" d="M598 377L599 378L598 377z"/>
<path style="fill:#a49b9b; stroke:none;" d="M647 377L648 378L647 377M598.333 378.667L598.667 379.333L598.333 378.667z"/>
<path style="fill:#619b8b; stroke:none;" d="M597 379L596 386L597 386L597 379z"/>
<path style="fill:#a49b9b; stroke:none;" d="M645 380L646 381L645 380z"/>
<path style="fill:#b3524c; stroke:none;" d="M241 381C236.983 394.589 240 412.827 240 427C240 455.661 236.695 486.596 240.424 515C242.037 527.281 239.289 540.131 241.369 552.32C242.209 557.244 248.385 560.727 252.682 557.254C257.039 553.732 254.992 542.996 255 538C255.024 522.852 253.501 503.698 257 489C252.22 484.463 254 477.181 254 471C254 457.576 256.116 442.087 253 429C267.729 428.455 278.998 449.174 283 461C287.488 454.97 286.912 446.207 286.988 439C287.311 408.525 269.593 388.044 241 381z"/>
<path style="fill:#a49b9b; stroke:none;" d="M242 381L242 382L245 382L242 381M644 381L645 382L644 381M248 382L249 383L248 382M597 382L598 383L597 382M643 382L644 383L643 382M642 383L643 384L642 383M254 384L255 385L254 384M641 384L642 385L641 384M258 386L259 387L258 386M596 386L597 387L596 386z"/>
<path style="fill:#619b8b; stroke:none;" d="M595.333 387.667L595.667 388.333L595.333 387.667z"/>
<path style="fill:#a49b9b; stroke:none;" d="M595 389L595 392L596 392L595 389M636 390L637 391L636 390M635 391L636 392L635 391z"/>
<path style="fill:#619b8b; stroke:none;" d="M594 392L594 397L595 397L594 392z"/>
<path style="fill:#a49b9b; stroke:none;" d="M634 392L635 393L634 392M633 393L634 394L633 393M632 394L633 395L632 394M594 397L594 404L595 404L594 397M628 399L629 400L628 399z"/>
<path style="fill:#b3524c; stroke:none;" d="M593 400L594 401L593 400z"/>
<path style="fill:#a49b9b; stroke:none;" d="M627 400L628 401L627 400z"/>
<path style="fill:#619b8b; stroke:none;" d="M593 401L593 409L594 409L593 401z"/>
<path style="fill:#a49b9b; stroke:none;" d="M626 401L627 402L626 401M625 402L626 403L625 402M622 406L623 407L622 406M621 407L622 408L621 407M593 409L593 435L594 435L593 409M617 412L618 413L617 412M616 413L617 414L616 413z"/>
<path style="fill:#619b8b; stroke:none;" d="M592 414L592 432L593 432L592 414z"/>
<path style="fill:#a49b9b; stroke:none;" d="M615 414L616 415L615 414M282 415L283 416L282 415M614 415L615 416L614 415M613 416L614 417L613 416M612 417L613 418L612 417M611 418L612 419L611 418M610 419L611 420L610 419M609 420L610 421L609 420M284 421L285 422L284 421M607 423L608 424L607 423M606 424L607 425L606 424M605 425L606 426L605 425M604 426L605 427L604 426M603 427L604 428L603 427M602 428L603 429L602 428M598 433L599 434L598 433M597 434L598 435L597 434M596 435L597 436L596 435z"/>
<path style="fill:#b3524c; stroke:none;" d="M592 437L593 438L592 437z"/>
<path style="fill:#a49b9b; stroke:none;" d="M593 437L594 438L593 437M285 456L284 464L286 464L285 456z"/>
<path style="fill:#b3524c; stroke:none;" d="M284 464L285 465L284 464M339 488L340 489L339 488M342.667 488.333L343.333 488.667L342.667 488.333M372 488L372 489L376 489L372 488M381 488L382 489L381 488M392 488L392 489L395 489L392 488z"/>
<path style="fill:#040406; stroke:none;" d="M266 504L266 527L298.17 526.345L311.397 528.519L314 543C303.665 543.213 293.392 543.999 283 544C278.381 544 271.647 543.308 267.434 545.589C263.125 547.921 264.213 566.376 268.318 568.397C274.46 571.419 287.195 569.075 294 568.989C312.309 568.757 331.797 569.75 350 568.276C354.853 567.883 358.971 564.533 364 564.213C372.045 563.701 376.056 568.642 383 570.613C387.555 571.905 394.282 569.413 399 569.089C405.679 568.632 413.377 568.282 420 569.304C426.015 570.233 430.97 573.579 437 570.427C458.665 559.102 453.154 532.965 441.109 517C438.005 512.887 435.258 505.797 429.83 504.319C414.929 500.261 393.548 504 378 504L266 504z"/>
<path style="fill:#b3524c; stroke:none;" d="M346 503L347 504L346 503M356 503L357 504L356 503M366 503L367 504L366 503M390.667 503.333L391.333 503.667L390.667 503.333z"/>
<path style="fill:#a49b9b; stroke:none;" d="M240 515L240 536L241 536L240 515z"/>
<path style="fill:#619b8b; stroke:none;" d="M348 527C348 530.391 346.66 537.499 349.028 540.218C350.932 542.405 355.497 541.072 358 541.015C364.336 540.87 380.333 543.983 385.397 539.972C394.57 532.707 381.725 527 376 527L365 527L348 527z"/>
<path style="fill:#a49b9b; stroke:none;" d="M240 538L241 539L240 538M241 548L242 549L241 548M241 550L242 551L241 550M241.333 554.667L241.667 555.333L241.333 554.667M242 556L243 557L242 556M254 556L255 557L254 556M243 557L244 558L243 557M253 557L254 558L253 557M245.667 558.333L246.333 558.667L245.667 558.333M251 558L252 559L251 558z"/>
<path style="fill:#b3524c; stroke:none;" d="M385 571C378.888 569.354 374.834 565.096 368 564.287C334.48 560.319 350.206 612.486 377.985 594.031C381.344 591.799 383.363 588.783 384.637 585C386.248 580.213 385.21 575.886 385 571M349 568L350 569L349 568z"/>
<path style="fill:#a49b9b; stroke:none;" d="M405 581L406 582L405 581M403 585L404 586L403 585M349 587L350 588L349 587M402 587L403 588L402 587M351 590L352 591L351 590M352 591L353 592L352 591M377 594L378 595L377 594M356 595L357 596L356 595M375 595L376 596L375 595M358 596L359 597L358 596M373 596L374 597L373 596z"/>
<path style="fill:#040406; stroke:none;" d="M330 597.558C306.446 603.737 316.469 639.451 340 633.62C363.62 627.766 354.416 591.152 330 597.558z"/>
<path style="fill:#a49b9b; stroke:none;" d="M363 597L363 598L366 598L363 597M370 597L371 598L370 597z"/>
<path style="fill:#040406; stroke:none;" d="M868 598C861.777 620.797 849.792 642.046 839.248 663C835.833 669.785 834.646 677.327 831.319 684C824.627 697.427 814.337 709.078 806.174 721.576C797.642 734.638 790.347 748.609 780.711 761C767.447 778.057 751.992 793.12 738.486 810C734.85 814.545 729.861 817.921 727 823L869 823L869 665L869 619L868 598z"/>
<path style="fill:#a49b9b; stroke:none;" d="M402 599L403 600L402 599M403 601L404 602L403 601M404 605L405 606L404 605M405 606L406 607L405 606M406 608L407 609L406 608M407 609L408 610L407 609M408 610L409 611L408 610M409 611L410 612L409 611M410 612L412 615L410 612M449 614L450 615L449 614M413 615L414 616L413 615M448 615L449 616L448 615M414 616L415 617L414 616M415 617L416 618L415 617M435 621L436 622L435 621M423 622L424 623L423 622z"/>
<path style="fill:#fbfcfc; stroke:none;" d="M70 659L70 748L78 746C81.2073 752.82 87.8719 754.055 92.8148 759.108C101.217 767.698 107.185 778.404 116 786.985C120.617 791.48 126.953 793.055 131.335 797.303C139.227 804.954 146.172 818.409 157 822.397C162.669 824.484 171.013 823 177 823L220 823L220 822C174.787 796.828 134.445 754.579 104.424 713C92.1491 695.999 83.2059 674.938 70 659M835 670L836 671L835 670M834.333 672.667L834.667 673.333L834.333 672.667M833 674C799.278 731.171 750.814 789.256 692 822L692 823C701.714 823 716.743 825.868 725.83 822.411C735.825 818.609 743.136 804.676 749.95 797C771.271 772.981 788.662 749.235 806.174 722.424C813.078 711.854 820.534 701.549 827.515 691C830.687 686.206 835.134 679.964 833 674z"/>
<path style="fill:#b3524c; stroke:none;" d="M450 699L451 700L450 699M448 701L449 702L448 701z"/>
<path style="fill:#040406; stroke:none;" d="M223 718L224 719L223 718M70 823L156 823L131.335 796.563L118 787.96L92.8148 758.224L78 746C67.2389 748.832 70 757.418 70 767L70 823z"/>
<path style="fill:#b3524c; stroke:none;" d="M17 892L17 893L894 893L871 892L819 892L639 892L17 892z"/>
</svg>
