<?xml version="1.0" standalone="no"?>
<!DOCTYPE svg PUBLIC "-//W3C//DTD SVG 20010904//EN"
 "http://www.w3.org/TR/2001/REC-SVG-20010904/DTD/svg10.dtd">
<svg version="1.0" xmlns="http://www.w3.org/2000/svg"
 width="893.000000pt" height="893.000000pt" viewBox="0 0 893.000000 893.000000"
 preserveAspectRatio="xMidYMid meet">
<metadata>
Created by potrace 1.14, written by Peter Selinger 2001-2017
</metadata>
<g transform="translate(0.000000,893.000000) scale(0.100000,-0.100000)"
fill="#000000" stroke="none">
<path d="M2834 6944 c-20 -8 -3 -47 41 -94 23 -25 64 -78 90 -117 26 -40 52
-73 56 -73 5 0 9 -8 9 -17 0 -17 35 -82 49 -93 10 -7 41 -76 41 -90 0 -12 29
-72 39 -80 4 -3 14 -30 23 -60 9 -30 32 -100 51 -155 19 -55 38 -123 41 -150
3 -28 11 -66 18 -85 9 -26 13 -220 16 -763 l3 -727 -453 2 -453 3 3 35 c2 19
6 97 8 173 6 158 -10 245 -68 369 -57 124 -230 253 -348 260 l-55 3 -3 -871
-2 -871 24 -26 c34 -37 88 -37 121 -1 l25 27 1 316 c1 174 1 322 0 329 -2 9
151 12 734 12 l735 0 0 -74 0 -75 -407 1 c-225 0 -533 -1 -685 -1 l-278 -1 0
-110 0 -110 229 0 c184 0 231 -3 240 -14 7 -9 11 -42 9 -88 l-3 -73 -237 -3
-238 -2 0 -120 0 -120 48 0 c26 -1 219 0 429 0 l382 1 -16 -32 c-9 -17 -18
-51 -21 -74 -4 -36 1 -50 27 -89 46 -67 64 -76 148 -76 67 0 75 2 108 31 47
42 68 92 62 149 -3 25 -9 53 -12 63 -7 17 6 18 221 17 198 -1 226 -3 210 -15
-10 -8 -42 -22 -70 -31 -131 -42 -176 -108 -176 -259 0 -74 4 -96 21 -124 40
-67 120 -124 148 -107 5 3 11 2 13 -4 3 -10 148 -21 148 -11 0 3 14 7 32 8 17
1 55 18 85 38 29 19 55 35 58 35 7 0 -54 -110 -83 -150 -73 -98 -176 -183
-277 -231 -47 -22 -64 -24 -267 -27 l-218 -3 0 120 0 121 -25 0 -25 0 0 -120
0 -120 -281 0 -282 0 5 415 c2 228 2 415 -1 415 -3 -1 -22 -26 -41 -56 -19
-30 -60 -77 -90 -104 -141 -123 -290 -284 -276 -298 3 -3 38 12 77 32 40 20
78 36 84 36 7 0 15 -14 19 -31 10 -50 7 -337 -3 -344 -6 -3 -36 -10 -68 -16
-167 -31 -335 -179 -422 -371 -32 -71 -91 -249 -91 -275 0 -11 16 4 38 35 91
127 273 214 452 216 l85 1 0 -307 0 -308 42 48 c23 26 43 50 43 53 0 3 28 28
63 54 34 27 67 52 72 57 6 5 12 99 15 221 l5 212 278 3 277 2 0 -150 0 -150
25 0 25 0 0 150 0 150 250 0 250 0 10 -26 c18 -46 12 -218 -10 -301 -12 -42
-25 -84 -31 -95 -36 -67 141 59 274 196 225 230 326 492 358 926 17 236 -6
451 -62 562 -18 35 -19 98 -19 1628 l0 1591 57 61 c32 33 88 78 126 100 51 31
67 46 67 63 0 13 -7 26 -16 29 -18 7 -1613 7 -1630 0z m581 -3194 l0 -65 -190
0 -190 0 -3 54 c-5 87 -17 82 195 79 l188 -3 0 -65z"/>
<path d="M6353 6610 c-227 -22 -355 -56 -540 -145 -233 -111 -384 -231 -586
-468 -37 -42 -74 -91 -82 -108 -9 -16 -42 -69 -74 -118 -70 -107 -171 -310
-205 -411 -56 -170 -89 -323 -120 -565 -22 -170 -15 -518 14 -713 5 -34 14
-95 20 -135 10 -62 114 -463 140 -537 37 -104 69 -393 64 -570 -9 -315 -82
-587 -205 -772 -21 -32 -36 -58 -33 -58 12 0 102 78 174 150 119 118 213 248
331 456 68 120 98 188 132 304 74 248 87 418 87 1158 l0 603 68 68 c83 84 214
228 226 250 5 8 17 23 27 31 9 8 50 53 90 100 41 47 95 106 121 132 26 26 64
69 84 95 20 27 73 89 118 138 46 50 118 131 162 180 43 50 104 117 135 150 49
53 79 86 167 184 12 14 22 36 22 49 l0 25 -140 -7 c-94 -5 -146 -3 -160 4 -41
22 -18 148 41 231 19 27 25 29 90 29 38 0 68 -3 68 -7 -1 -5 -1 -36 0 -71 l1
-63 38 3 c34 3 54 20 215 184 119 122 177 188 177 202 0 21 -3 22 -138 22 -77
0 -206 2 -288 4 -82 3 -190 1 -241 -4z"/>
<path d="M2877 5296 c-93 -34 -157 -125 -157 -224 0 -72 18 -119 67 -173 50
-55 83 -70 156 -71 114 -1 115 -1 174 54 68 65 84 95 85 162 2 105 -64 217
-149 252 -41 18 -127 17 -176 0z"/>
<path d="M2833 3103 c-86 -48 -113 -89 -113 -175 0 -71 34 -124 102 -159 134
-69 299 71 257 219 -30 106 -155 165 -246 115z"/>
</g>
</svg>
